solid Object01
  facet normal 1.372646e-001 9.972855e-002 9.855012e-001
    outer loop
      vertex 0.000000e+000 5.910622e+000 3.149606e+000
      vertex 8.606820e-001 5.910622e+000 3.029727e+000
      vertex 2.659653e-001 6.729179e+000 3.029727e+000
    endloop
  endfacet
  facet normal 4.013872e-001 9.866851e-002 9.105783e-001
    outer loop
      vertex 8.606820e-001 5.910622e+000 3.029727e+000
      vertex 1.655846e+000 5.910622e+000 2.679215e+000
      vertex 1.139538e+000 6.738545e+000 2.817094e+000
    endloop
  endfacet
  facet normal 2.314318e-001 1.681451e-001 9.582101e-001
    outer loop
      vertex 8.606820e-001 5.910622e+000 3.029727e+000
      vertex 1.139538e+000 6.738545e+000 2.817094e+000
      vertex 2.659653e-001 6.729179e+000 3.029727e+000
    endloop
  endfacet
  facet normal 2.178748e-001 3.512516e-001 9.105783e-001
    outer loop
      vertex 2.659653e-001 6.729179e+000 3.029727e+000
      vertex 1.139538e+000 6.738545e+000 2.817094e+000
      vertex 5.116845e-001 7.485425e+000 2.679215e+000
    endloop
  endfacet
  facet normal 6.349724e-001 9.816229e-002 7.662730e-001
    outer loop
      vertex 1.655846e+000 5.910622e+000 2.679215e+000
      vertex 2.324961e+000 5.910622e+000 2.124752e+000
      vertex 1.946031e+000 6.744248e+000 2.331963e+000
    endloop
  endfacet
  facet normal 5.065666e-001 1.753165e-001 8.441886e-001
    outer loop
      vertex 1.655846e+000 5.910622e+000 2.679215e+000
      vertex 1.946031e+000 6.744248e+000 2.331963e+000
      vertex 1.139538e+000 6.738545e+000 2.817094e+000
    endloop
  endfacet
  facet normal 4.811262e-001 3.495585e-001 8.039443e-001
    outer loop
      vertex 1.139538e+000 6.738545e+000 2.817094e+000
      vertex 1.946031e+000 6.744248e+000 2.331963e+000
      vertex 1.394183e+000 7.503802e+000 2.331963e+000
    endloop
  endfacet
  facet normal 3.232737e-001 4.275976e-001 8.441886e-001
    outer loop
      vertex 1.139538e+000 6.738545e+000 2.817094e+000
      vertex 1.394183e+000 7.503802e+000 2.331963e+000
      vertex 5.116845e-001 7.485425e+000 2.679215e+000
    endloop
  endfacet
  facet normal 2.895753e-001 5.735606e-001 7.662731e-001
    outer loop
      vertex 5.116845e-001 7.485425e+000 2.679215e+000
      vertex 1.394183e+000 7.503802e+000 2.331963e+000
      vertex 7.184525e-001 8.121792e+000 2.124752e+000
    endloop
  endfacet
  facet normal 8.200723e-001 9.972863e-002 5.635030e-001
    outer loop
      vertex 2.324961e+000 5.910622e+000 2.124752e+000
      vertex 2.817093e+000 5.910622e+000 1.408547e+000
      vertex 2.590927e+000 6.729179e+000 1.592822e+000
    endloop
  endfacet
  facet normal 7.433268e-001 1.775777e-001 6.449275e-001
    outer loop
      vertex 2.324961e+000 5.910622e+000 2.124752e+000
      vertex 2.590927e+000 6.729179e+000 1.592822e+000
      vertex 1.946031e+000 6.744248e+000 2.331963e+000
    endloop
  endfacet
  facet normal 7.102906e-001 3.466096e-001 6.126575e-001
    outer loop
      vertex 1.946031e+000 6.744248e+000 2.331963e+000
      vertex 2.590927e+000 6.729179e+000 1.592822e+000
      vertex 2.167530e+000 7.485425e+000 1.655846e+000
    endloop
  endfacet
  facet normal 5.985369e-001 4.348624e-001 6.727914e-001
    outer loop
      vertex 1.946031e+000 6.744248e+000 2.331963e+000
      vertex 2.167530e+000 7.485425e+000 1.655846e+000
      vertex 1.394183e+000 7.503802e+000 2.331963e+000
    endloop
  endfacet
  facet normal 5.491373e-001 5.684179e-001 6.126576e-001
    outer loop
      vertex 1.394183e+000 7.503802e+000 2.331963e+000
      vertex 2.167530e+000 7.485425e+000 1.655846e+000
      vertex 1.579135e+000 8.121792e+000 1.592822e+000
    endloop
  endfacet
  facet normal 3.985872e-001 6.520709e-001 6.449277e-001
    outer loop
      vertex 1.394183e+000 7.503802e+000 2.331963e+000
      vertex 1.579135e+000 8.121792e+000 1.592822e+000
      vertex 7.184525e-001 8.121792e+000 2.124752e+000
    endloop
  endfacet
  facet normal 3.482638e-001 7.491174e-001 5.635027e-001
    outer loop
      vertex 7.184525e-001 8.121792e+000 2.124752e+000
      vertex 1.579135e+000 8.121792e+000 1.592822e+000
      vertex 8.705297e-001 8.589837e+000 1.408547e+000
    endloop
  endfacet
  facet normal -5.243043e-002 1.613642e-001 9.855012e-001
    outer loop
      vertex 0.000000e+000 5.910622e+000 3.149606e+000
      vertex 2.659653e-001 6.729179e+000 3.029727e+000
      vertex -6.963063e-001 6.416518e+000 3.029727e+000
    endloop
  endfacet
  facet normal 3.019532e-002 4.122323e-001 9.105783e-001
    outer loop
      vertex 2.659653e-001 6.729179e+000 3.029727e+000
      vertex 5.116845e-001 7.485425e+000 2.679215e+000
      vertex -4.352649e-001 7.250229e+000 2.817093e+000
    endloop
  endfacet
  facet normal -8.839937e-002 2.720652e-001 9.582099e-001
    outer loop
      vertex 2.659653e-001 6.729179e+000 3.029727e+000
      vertex -4.352649e-001 7.250229e+000 2.817093e+000
      vertex -6.963063e-001 6.416518e+000 3.029727e+000
    endloop
  endfacet
  facet normal -2.667327e-001 3.157545e-001 9.105783e-001
    outer loop
      vertex -6.963063e-001 6.416518e+000 3.029727e+000
      vertex -4.352649e-001 7.250229e+000 2.817093e+000
      vertex -1.339607e+000 6.883904e+000 2.679215e+000
    endloop
  endfacet
  facet normal 1.028587e-001 6.342284e-001 7.662731e-001
    outer loop
      vertex 5.116845e-001 7.485425e+000 2.679215e+000
      vertex 7.184525e-001 8.121792e+000 2.124752e+000
      vertex -1.914697e-001 8.019011e+000 2.331963e+000
    endloop
  endfacet
  facet normal -1.019895e-002 5.359489e-001 8.441888e-001
    outer loop
      vertex 5.116845e-001 7.485425e+000 2.679215e+000
      vertex -1.914697e-001 8.019011e+000 2.331963e+000
      vertex -4.352649e-001 7.250229e+000 2.817093e+000
    endloop
  endfacet
  facet normal -1.837735e-001 5.655971e-001 8.039448e-001
    outer loop
      vertex -4.352649e-001 7.250229e+000 2.817093e+000
      vertex -1.914697e-001 8.019011e+000 2.331963e+000
      vertex -1.084379e+000 7.728888e+000 2.331963e+000
    endloop
  endfacet
  facet normal -3.067718e-001 4.395863e-001 8.441889e-001
    outer loop
      vertex -4.352649e-001 7.250229e+000 2.817093e+000
      vertex -1.084379e+000 7.728888e+000 2.331963e+000
      vertex -1.339607e+000 6.883904e+000 2.679215e+000
    endloop
  endfacet
  facet normal -4.560049e-001 4.526423e-001 7.662731e-001
    outer loop
      vertex -1.339607e+000 6.883904e+000 2.679215e+000
      vertex -1.084379e+000 7.728888e+000 2.331963e+000
      vertex -1.880933e+000 7.277200e+000 2.124752e+000
    endloop
  endfacet
  facet normal 1.585683e-001 8.107532e-001 5.635027e-001
    outer loop
      vertex 7.184525e-001 8.121792e+000 2.124752e+000
      vertex 8.705297e-001 8.589837e+000 1.408547e+000
      vertex 2.214614e-002 8.627687e+000 1.592822e+000
    endloop
  endfacet
  facet normal 6.081343e-002 7.618203e-001 6.449276e-001
    outer loop
      vertex 7.184525e-001 8.121792e+000 2.124752e+000
      vertex 2.214614e-002 8.627687e+000 1.592822e+000
      vertex -1.914697e-001 8.019011e+000 2.331963e+000
    endloop
  endfacet
  facet normal -1.101540e-001 7.826346e-001 6.126574e-001
    outer loop
      vertex -1.914697e-001 8.019011e+000 2.331963e+000
      vertex 2.214614e-002 8.627687e+000 1.592822e+000
      vertex -8.279231e-001 8.458706e+000 1.655846e+000
    endloop
  endfacet
  facet normal -2.286206e-001 7.036226e-001 6.727911e-001
    outer loop
      vertex -1.914697e-001 8.019011e+000 2.331963e+000
      vertex -8.279231e-001 8.458706e+000 1.655846e+000
      vertex -1.084379e+000 7.728888e+000 2.331963e+000
    endloop
  endfacet
  facet normal -3.709050e-001 6.979116e-001 6.126572e-001
    outer loop
      vertex -1.084379e+000 7.728888e+000 2.331963e+000
      vertex -8.279231e-001 8.458706e+000 1.655846e+000
      vertex -1.614968e+000 8.095757e+000 1.592822e+000
    endloop
  endfacet
  facet normal -4.969863e-001 5.805801e-001 6.449274e-001
    outer loop
      vertex -1.084379e+000 7.728888e+000 2.331963e+000
      vertex -1.614968e+000 8.095757e+000 1.592822e+000
      vertex -1.880933e+000 7.277200e+000 2.124752e+000
    endloop
  endfacet
  facet normal -6.048335e-001 5.627088e-001 5.635026e-001
    outer loop
      vertex -1.880933e+000 7.277200e+000 2.124752e+000
      vertex -1.614968e+000 8.095757e+000 1.592822e+000
      vertex -2.279077e+000 7.566467e+000 1.408547e+000
    endloop
  endfacet
  facet normal -1.696684e-001 -1.042211e-008 9.855012e-001
    outer loop
      vertex 0.000000e+000 5.910622e+000 3.149606e+000
      vertex -6.963063e-001 6.416518e+000 3.029727e+000
      vertex -6.963063e-001 5.404726e+000 3.029727e+000
    endloop
  endfacet
  facet normal -3.827250e-001 1.561049e-001 9.105783e-001
    outer loop
      vertex -6.963063e-001 6.416518e+000 3.029727e+000
      vertex -1.339607e+000 6.883904e+000 2.679215e+000
      vertex -1.408547e+000 5.910622e+000 2.817094e+000
    endloop
  endfacet
  facet normal -2.860655e-001 -1.685211e-008 9.582101e-001
    outer loop
      vertex -6.963063e-001 6.416518e+000 3.029727e+000
      vertex -1.408547e+000 5.910622e+000 2.817094e+000
      vertex -6.963063e-001 5.404726e+000 3.029727e+000
    endloop
  endfacet
  facet normal -3.827250e-001 -1.561049e-001 9.105783e-001
    outer loop
      vertex -6.963063e-001 5.404726e+000 3.029727e+000
      vertex -1.408547e+000 5.910622e+000 2.817094e+000
      vertex -1.339607e+000 4.937340e+000 2.679215e+000
    endloop
  endfacet
  facet normal -5.714018e-001 2.938121e-001 7.662731e-001
    outer loop
      vertex -1.339607e+000 6.883904e+000 2.679215e+000
      vertex -1.880933e+000 7.277200e+000 2.124752e+000
      vertex -2.064366e+000 6.380052e+000 2.331962e+000
    endloop
  endfacet
  facet normal -5.128695e-001 1.559182e-001 8.441886e-001
    outer loop
      vertex -1.339607e+000 6.883904e+000 2.679215e+000
      vertex -2.064366e+000 6.380052e+000 2.331962e+000
      vertex -1.408547e+000 5.910622e+000 2.817094e+000
    endloop
  endfacet
  facet normal -5.947047e-001 -1.556508e-007 8.039442e-001
    outer loop
      vertex -1.408547e+000 5.910622e+000 2.817094e+000
      vertex -2.064366e+000 6.380052e+000 2.331962e+000
      vertex -2.064365e+000 5.441192e+000 2.331962e+000
    endloop
  endfacet
  facet normal -5.128697e-001 -1.559183e-001 8.441885e-001
    outer loop
      vertex -1.408547e+000 5.910622e+000 2.817094e+000
      vertex -2.064365e+000 5.441192e+000 2.331962e+000
      vertex -1.339607e+000 4.937340e+000 2.679215e+000
    endloop
  endfacet
  facet normal -5.714019e-001 -2.938121e-001 7.662730e-001
    outer loop
      vertex -1.339607e+000 4.937340e+000 2.679215e+000
      vertex -2.064365e+000 5.441192e+000 2.331962e+000
      vertex -1.880933e+000 4.544044e+000 2.124752e+000
    endloop
  endfacet
  facet normal -7.220718e-001 4.013441e-001 5.635027e-001
    outer loop
      vertex -1.880933e+000 7.277200e+000 2.124752e+000
      vertex -2.279077e+000 7.566467e+000 1.408547e+000
      vertex -2.577240e+000 6.771303e+000 1.592822e+000
    endloop
  endfacet
  facet normal -7.057418e-001 2.932529e-001 6.449274e-001
    outer loop
      vertex -1.880933e+000 7.277200e+000 2.124752e+000
      vertex -2.577240e+000 6.771303e+000 1.592822e+000
      vertex -2.064366e+000 6.380052e+000 2.331962e+000
    endloop
  endfacet
  facet normal -7.783692e-001 1.370851e-001 6.126573e-001
    outer loop
      vertex -2.064366e+000 6.380052e+000 2.331962e+000
      vertex -2.577240e+000 6.771303e+000 1.592822e+000
      vertex -2.679215e+000 5.910621e+000 1.655846e+000
    endloop
  endfacet
  facet normal -7.398323e-001 -1.878766e-007 6.727913e-001
    outer loop
      vertex -2.064366e+000 6.380052e+000 2.331962e+000
      vertex -2.679215e+000 5.910621e+000 1.655846e+000
      vertex -2.064365e+000 5.441192e+000 2.331962e+000
    endloop
  endfacet
  facet normal -7.783690e-001 -1.370852e-001 6.126576e-001
    outer loop
      vertex -2.064365e+000 5.441192e+000 2.331962e+000
      vertex -2.679215e+000 5.910621e+000 1.655846e+000
      vertex -2.577240e+000 5.049940e+000 1.592822e+000
    endloop
  endfacet
  facet normal -7.057415e-001 -2.932529e-001 6.449277e-001
    outer loop
      vertex -2.064365e+000 5.441192e+000 2.331962e+000
      vertex -2.577240e+000 5.049940e+000 1.592822e+000
      vertex -1.880933e+000 4.544044e+000 2.124752e+000
    endloop
  endfacet
  facet normal -7.220715e-001 -4.013443e-001 5.635029e-001
    outer loop
      vertex -1.880933e+000 4.544044e+000 2.124752e+000
      vertex -2.577240e+000 5.049940e+000 1.592822e+000
      vertex -2.279076e+000 4.254776e+000 1.408547e+000
    endloop
  endfacet
  facet normal -5.243043e-002 -1.613642e-001 9.855012e-001
    outer loop
      vertex 0.000000e+000 5.910622e+000 3.149606e+000
      vertex -6.963063e-001 5.404726e+000 3.029727e+000
      vertex 2.659655e-001 5.092064e+000 3.029727e+000
    endloop
  endfacet
  facet normal -2.667327e-001 -3.157545e-001 9.105783e-001
    outer loop
      vertex -6.963063e-001 5.404726e+000 3.029727e+000
      vertex -1.339607e+000 4.937340e+000 2.679215e+000
      vertex -4.352647e-001 4.571014e+000 2.817093e+000
    endloop
  endfacet
  facet normal -8.839937e-002 -2.720652e-001 9.582099e-001
    outer loop
      vertex -6.963063e-001 5.404726e+000 3.029727e+000
      vertex -4.352647e-001 4.571014e+000 2.817093e+000
      vertex 2.659655e-001 5.092064e+000 3.029727e+000
    endloop
  endfacet
  facet normal 3.019532e-002 -4.122323e-001 9.105783e-001
    outer loop
      vertex 2.659655e-001 5.092064e+000 3.029727e+000
      vertex -4.352647e-001 4.571014e+000 2.817093e+000
      vertex 5.116847e-001 4.335818e+000 2.679215e+000
    endloop
  endfacet
  facet normal -4.560047e-001 -4.526426e-001 7.662730e-001
    outer loop
      vertex -1.339607e+000 4.937340e+000 2.679215e+000
      vertex -1.880933e+000 4.544044e+000 2.124752e+000
      vertex -1.084378e+000 4.092355e+000 2.331962e+000
    endloop
  endfacet
  facet normal -3.067719e-001 -4.395866e-001 8.441887e-001
    outer loop
      vertex -1.339607e+000 4.937340e+000 2.679215e+000
      vertex -1.084378e+000 4.092355e+000 2.331962e+000
      vertex -4.352647e-001 4.571014e+000 2.817093e+000
    endloop
  endfacet
  facet normal -1.837737e-001 -5.655972e-001 8.039446e-001
    outer loop
      vertex -4.352647e-001 4.571014e+000 2.817093e+000
      vertex -1.084378e+000 4.092355e+000 2.331962e+000
      vertex -1.914694e-001 3.802232e+000 2.331962e+000
    endloop
  endfacet
  facet normal -1.019897e-002 -5.359490e-001 8.441887e-001
    outer loop
      vertex -4.352647e-001 4.571014e+000 2.817093e+000
      vertex -1.914694e-001 3.802232e+000 2.331962e+000
      vertex 5.116847e-001 4.335818e+000 2.679215e+000
    endloop
  endfacet
  facet normal 1.028591e-001 -6.342287e-001 7.662728e-001
    outer loop
      vertex 5.116847e-001 4.335818e+000 2.679215e+000
      vertex -1.914694e-001 3.802232e+000 2.331962e+000
      vertex 7.184528e-001 3.699452e+000 2.124752e+000
    endloop
  endfacet
  facet normal -6.048334e-001 -5.627087e-001 5.635028e-001
    outer loop
      vertex -1.880933e+000 4.544044e+000 2.124752e+000
      vertex -2.279076e+000 4.254776e+000 1.408547e+000
      vertex -1.614968e+000 3.725486e+000 1.592822e+000
    endloop
  endfacet
  facet normal -4.969860e-001 -5.805800e-001 6.449277e-001
    outer loop
      vertex -1.880933e+000 4.544044e+000 2.124752e+000
      vertex -1.614968e+000 3.725486e+000 1.592822e+000
      vertex -1.084378e+000 4.092355e+000 2.331962e+000
    endloop
  endfacet
  facet normal -3.709051e-001 -6.979111e-001 6.126577e-001
    outer loop
      vertex -1.084378e+000 4.092355e+000 2.331962e+000
      vertex -1.614968e+000 3.725486e+000 1.592822e+000
      vertex -8.279227e-001 3.362536e+000 1.655846e+000
    endloop
  endfacet
  facet normal -2.286207e-001 -7.036220e-001 6.727917e-001
    outer loop
      vertex -1.084378e+000 4.092355e+000 2.331962e+000
      vertex -8.279227e-001 3.362536e+000 1.655846e+000
      vertex -1.914694e-001 3.802232e+000 2.331962e+000
    endloop
  endfacet
  facet normal -1.101531e-001 -7.826346e-001 6.126577e-001
    outer loop
      vertex -1.914694e-001 3.802232e+000 2.331962e+000
      vertex -8.279227e-001 3.362536e+000 1.655846e+000
      vertex 2.214654e-002 3.193556e+000 1.592822e+000
    endloop
  endfacet
  facet normal 6.081409e-002 -7.618202e-001 6.449276e-001
    outer loop
      vertex -1.914694e-001 3.802232e+000 2.331962e+000
      vertex 2.214654e-002 3.193556e+000 1.592822e+000
      vertex 7.184528e-001 3.699452e+000 2.124752e+000
    endloop
  endfacet
  facet normal 1.585688e-001 -8.107530e-001 5.635029e-001
    outer loop
      vertex 7.184528e-001 3.699452e+000 2.124752e+000
      vertex 2.214654e-002 3.193556e+000 1.592822e+000
      vertex 8.705301e-001 3.231407e+000 1.408547e+000
    endloop
  endfacet
  facet normal 1.372646e-001 -9.972852e-002 9.855012e-001
    outer loop
      vertex 0.000000e+000 5.910622e+000 3.149606e+000
      vertex 2.659655e-001 5.092064e+000 3.029727e+000
      vertex 8.606820e-001 5.910622e+000 3.029727e+000
    endloop
  endfacet
  facet normal 2.178755e-001 -3.512513e-001 9.105783e-001
    outer loop
      vertex 2.659655e-001 5.092064e+000 3.029727e+000
      vertex 5.116847e-001 4.335818e+000 2.679215e+000
      vertex 1.139538e+000 5.082699e+000 2.817093e+000
    endloop
  endfacet
  facet normal 2.314324e-001 -1.681455e-001 9.582099e-001
    outer loop
      vertex 2.659655e-001 5.092064e+000 3.029727e+000
      vertex 1.139538e+000 5.082699e+000 2.817093e+000
      vertex 8.606820e-001 5.910622e+000 3.029727e+000
    endloop
  endfacet
  facet normal 4.013872e-001 -9.866914e-002 9.105783e-001
    outer loop
      vertex 8.606820e-001 5.910622e+000 3.029727e+000
      vertex 1.139538e+000 5.082699e+000 2.817093e+000
      vertex 1.655846e+000 5.910622e+000 2.679215e+000
    endloop
  endfacet
  facet normal 2.895756e-001 -5.735608e-001 7.662728e-001
    outer loop
      vertex 5.116847e-001 4.335818e+000 2.679215e+000
      vertex 7.184528e-001 3.699452e+000 2.124752e+000
      vertex 1.394183e+000 4.317441e+000 2.331962e+000
    endloop
  endfacet
  facet normal 3.232741e-001 -4.275971e-001 8.441887e-001
    outer loop
      vertex 5.116847e-001 4.335818e+000 2.679215e+000
      vertex 1.394183e+000 4.317441e+000 2.331962e+000
      vertex 1.139538e+000 5.082699e+000 2.817093e+000
    endloop
  endfacet
  facet normal 4.811258e-001 -3.495584e-001 8.039446e-001
    outer loop
      vertex 1.139538e+000 5.082699e+000 2.817093e+000
      vertex 1.394183e+000 4.317441e+000 2.331962e+000
      vertex 1.946031e+000 5.076995e+000 2.331962e+000
    endloop
  endfacet
  facet normal 5.065662e-001 -1.753169e-001 8.441887e-001
    outer loop
      vertex 1.139538e+000 5.082699e+000 2.817093e+000
      vertex 1.946031e+000 5.076995e+000 2.331962e+000
      vertex 1.655846e+000 5.910622e+000 2.679215e+000
    endloop
  endfacet
  facet normal 6.349724e-001 -9.816243e-002 7.662730e-001
    outer loop
      vertex 1.655846e+000 5.910622e+000 2.679215e+000
      vertex 1.946031e+000 5.076995e+000 2.331962e+000
      vertex 2.324961e+000 5.910622e+000 2.124752e+000
    endloop
  endfacet
  facet normal 3.482637e-001 -7.491174e-001 5.635030e-001
    outer loop
      vertex 7.184528e-001 3.699452e+000 2.124752e+000
      vertex 8.705301e-001 3.231407e+000 1.408547e+000
      vertex 1.579135e+000 3.699452e+000 1.592822e+000
    endloop
  endfacet
  facet normal 3.985870e-001 -6.520709e-001 6.449279e-001
    outer loop
      vertex 7.184528e-001 3.699452e+000 2.124752e+000
      vertex 1.579135e+000 3.699452e+000 1.592822e+000
      vertex 1.394183e+000 4.317441e+000 2.331962e+000
    endloop
  endfacet
  facet normal 5.491372e-001 -5.684178e-001 6.126577e-001
    outer loop
      vertex 1.394183e+000 4.317441e+000 2.331962e+000
      vertex 1.579135e+000 3.699452e+000 1.592822e+000
      vertex 2.167531e+000 4.335819e+000 1.655846e+000
    endloop
  endfacet
  facet normal 5.985368e-001 -4.348625e-001 6.727914e-001
    outer loop
      vertex 1.394183e+000 4.317441e+000 2.331962e+000
      vertex 2.167531e+000 4.335819e+000 1.655846e+000
      vertex 1.946031e+000 5.076995e+000 2.331962e+000
    endloop
  endfacet
  facet normal 7.102903e-001 -3.466097e-001 6.126577e-001
    outer loop
      vertex 1.946031e+000 5.076995e+000 2.331962e+000
      vertex 2.167531e+000 4.335819e+000 1.655846e+000
      vertex 2.590927e+000 5.092064e+000 1.592822e+000
    endloop
  endfacet
  facet normal 7.433265e-001 -1.775776e-001 6.449278e-001
    outer loop
      vertex 1.946031e+000 5.076995e+000 2.331962e+000
      vertex 2.590927e+000 5.092064e+000 1.592822e+000
      vertex 2.324961e+000 5.910622e+000 2.124752e+000
    endloop
  endfacet
  facet normal 8.200724e-001 -9.972832e-002 5.635030e-001
    outer loop
      vertex 2.324961e+000 5.910622e+000 2.124752e+000
      vertex 2.590927e+000 5.092064e+000 1.592822e+000
      vertex 2.817093e+000 5.910622e+000 1.408547e+000
    endloop
  endfacet
  facet normal 9.573371e-001 2.292865e-007 2.889736e-001
    outer loop
      vertex 2.817093e+000 5.910622e+000 1.408547e+000
      vertex 3.021268e+000 5.404726e+000 7.321398e-001
      vertex 3.021268e+000 6.416518e+000 7.321397e-001
    endloop
  endfacet
  facet normal 9.856059e-001 -1.561043e-001 6.490352e-002
    outer loop
      vertex 3.021268e+000 5.404726e+000 7.321398e-001
      vertex 2.995454e+000 4.937340e+000 0.000000e+000
      vertex 3.149606e+000 5.910622e+000 0.000000e+000
    endloop
  endfacet
  facet normal 9.849815e-001 2.422724e-007 1.726597e-001
    outer loop
      vertex 3.021268e+000 5.404726e+000 7.321398e-001
      vertex 3.149606e+000 5.910622e+000 0.000000e+000
      vertex 3.021268e+000 6.416518e+000 7.321397e-001
    endloop
  endfacet
  facet normal 9.856058e-001 1.561051e-001 6.490339e-002
    outer loop
      vertex 3.021268e+000 6.416518e+000 7.321397e-001
      vertex 3.149606e+000 5.910622e+000 0.000000e+000
      vertex 2.995453e+000 6.883904e+000 0.000000e+000
    endloop
  endfacet
  facet normal 9.409142e-001 -2.938120e-001 -1.683897e-001
    outer loop
      vertex 2.995454e+000 4.937340e+000 0.000000e+000
      vertex 2.741616e+000 4.544044e+000 -7.321398e-001
      vertex 3.008983e+000 5.441192e+000 -8.035395e-001
    endloop
  endfacet
  facet normal 9.844275e-001 -1.559177e-001 -8.119179e-002
    outer loop
      vertex 2.995454e+000 4.937340e+000 0.000000e+000
      vertex 3.008983e+000 5.441192e+000 -8.035395e-001
      vertex 3.149606e+000 5.910622e+000 0.000000e+000
    endloop
  endfacet
  facet normal 9.850297e-001 2.432045e-007 -1.723849e-001
    outer loop
      vertex 3.149606e+000 5.910622e+000 0.000000e+000
      vertex 3.008983e+000 5.441192e+000 -8.035395e-001
      vertex 3.008983e+000 6.380052e+000 -8.035395e-001
    endloop
  endfacet
  facet normal 9.844274e-001 1.559185e-001 -8.119169e-002
    outer loop
      vertex 3.149606e+000 5.910622e+000 0.000000e+000
      vertex 3.008983e+000 6.380052e+000 -8.035395e-001
      vertex 2.995453e+000 6.883904e+000 0.000000e+000
    endloop
  endfacet
  facet normal 9.409141e-001 2.938123e-001 -1.683894e-001
    outer loop
      vertex 2.995453e+000 6.883904e+000 0.000000e+000
      vertex 3.008983e+000 6.380052e+000 -8.035395e-001
      vertex 2.741615e+000 7.277200e+000 -7.321397e-001
    endloop
  endfacet
  facet normal 8.269325e-001 -4.013439e-001 -3.938345e-001
    outer loop
      vertex 2.741616e+000 4.544044e+000 -7.321398e-001
      vertex 2.279077e+000 4.254776e+000 -1.408547e+000
      vertex 2.577240e+000 5.049941e+000 -1.592821e+000
    endloop
  endfacet
  facet normal 8.924579e-001 -2.932527e-001 -3.428144e-001
    outer loop
      vertex 2.741616e+000 4.544044e+000 -7.321398e-001
      vertex 2.577240e+000 5.049941e+000 -1.592821e+000
      vertex 3.008983e+000 5.441192e+000 -8.035395e-001
    endloop
  endfacet
  facet normal 8.960747e-001 -1.370848e-001 -4.222060e-001
    outer loop
      vertex 3.008983e+000 5.441192e+000 -8.035395e-001
      vertex 2.577240e+000 5.049941e+000 -1.592821e+000
      vertex 2.679215e+000 5.910622e+000 -1.655846e+000
    endloop
  endfacet
  facet normal 9.326258e-001 2.368356e-007 -3.608450e-001
    outer loop
      vertex 3.008983e+000 5.441192e+000 -8.035395e-001
      vertex 2.679215e+000 5.910622e+000 -1.655846e+000
      vertex 3.008983e+000 6.380052e+000 -8.035395e-001
    endloop
  endfacet
  facet normal 8.960747e-001 1.370851e-001 -4.222059e-001
    outer loop
      vertex 3.008983e+000 6.380052e+000 -8.035395e-001
      vertex 2.679215e+000 5.910622e+000 -1.655846e+000
      vertex 2.577240e+000 6.771304e+000 -1.592821e+000
    endloop
  endfacet
  facet normal 8.924580e-001 2.932530e-001 -3.428141e-001
    outer loop
      vertex 3.008983e+000 6.380052e+000 -8.035395e-001
      vertex 2.577240e+000 6.771304e+000 -1.592821e+000
      vertex 2.741615e+000 7.277200e+000 -7.321397e-001
    endloop
  endfacet
  facet normal 8.269324e-001 4.013444e-001 -3.938344e-001
    outer loop
      vertex 2.741615e+000 7.277200e+000 -7.321397e-001
      vertex 2.577240e+000 6.771304e+000 -1.592821e+000
      vertex 2.279076e+000 7.566467e+000 -1.408547e+000
    endloop
  endfacet
  facet normal 2.958336e-001 9.104818e-001 2.889730e-001
    outer loop
      vertex 8.705297e-001 8.589837e+000 1.408547e+000
      vertex 1.414759e+000 8.627687e+000 7.321397e-001
      vertex 4.524871e-001 8.940349e+000 7.321398e-001
    endloop
  endfacet
  facet normal 4.530334e-001 8.891279e-001 6.490263e-002
    outer loop
      vertex 1.414759e+000 8.627687e+000 7.321397e-001
      vertex 1.851292e+000 8.458706e+000 0.000000e+000
      vertex 9.732816e-001 8.906075e+000 0.000000e+000
    endloop
  endfacet
  facet normal 3.043762e-001 9.367732e-001 1.726588e-001
    outer loop
      vertex 1.414759e+000 8.627687e+000 7.321397e-001
      vertex 9.732816e-001 8.906075e+000 0.000000e+000
      vertex 4.524871e-001 8.940349e+000 7.321398e-001
    endloop
  endfacet
  facet normal 1.561058e-001 9.856057e-001 6.490327e-002
    outer loop
      vertex 4.524871e-001 8.940349e+000 7.321398e-001
      vertex 9.732816e-001 8.906075e+000 0.000000e+000
      vertex -9.996003e-008 9.060228e+000 0.000000e+000
    endloop
  endfacet
  facet normal 5.701906e-001 8.040695e-001 -1.683891e-001
    outer loop
      vertex 1.851292e+000 8.458706e+000 0.000000e+000
      vertex 2.146899e+000 8.095757e+000 -7.321397e-001
      vertex 1.376281e+000 8.627273e+000 -8.035395e-001
    endloop
  endfacet
  facet normal 4.524917e-001 8.880649e-001 -8.119106e-002
    outer loop
      vertex 1.851292e+000 8.458706e+000 0.000000e+000
      vertex 1.376281e+000 8.627273e+000 -8.035395e-001
      vertex 9.732816e-001 8.906075e+000 0.000000e+000
    endloop
  endfacet
  facet normal 3.043912e-001 9.368190e-001 -1.723840e-001
    outer loop
      vertex 9.732816e-001 8.906075e+000 0.000000e+000
      vertex 1.376281e+000 8.627273e+000 -8.035395e-001
      vertex 4.833724e-001 8.917397e+000 -8.035395e-001
    endloop
  endfacet
  facet normal 1.559191e-001 9.844273e-001 -8.119142e-002
    outer loop
      vertex 9.732816e-001 8.906075e+000 0.000000e+000
      vertex 4.833724e-001 8.917397e+000 -8.035395e-001
      vertex -9.996003e-008 9.060228e+000 0.000000e+000
    endloop
  endfacet
  facet normal 1.132631e-002 9.856554e-001 -1.683901e-001
    outer loop
      vertex -9.996003e-008 9.060228e+000 0.000000e+000
      vertex 4.833724e-001 8.917397e+000 -8.035395e-001
      vertex -4.524873e-001 8.940349e+000 -7.321398e-001
    endloop
  endfacet
  facet normal 6.372373e-001 6.624373e-001 -3.938343e-001
    outer loop
      vertex 2.146899e+000 8.095757e+000 -7.321397e-001
      vertex 2.279076e+000 7.566467e+000 -1.408547e+000
      vertex 1.614968e+000 8.095757e+000 -1.592822e+000
    endloop
  endfacet
  facet normal 5.546849e-001 7.581577e-001 -3.428141e-001
    outer loop
      vertex 2.146899e+000 8.095757e+000 -7.321397e-001
      vertex 1.614968e+000 8.095757e+000 -1.592822e+000
      vertex 1.376281e+000 8.627273e+000 -8.035395e-001
    endloop
  endfacet
  facet normal 4.072778e-001 8.098561e-001 -4.222060e-001
    outer loop
      vertex 1.376281e+000 8.627273e+000 -8.035395e-001
      vertex 1.614968e+000 8.095757e+000 -1.592822e+000
      vertex 8.279229e-001 8.458706e+000 -1.655846e+000
    endloop
  endfacet
  facet normal 2.881975e-001 8.869797e-001 -3.608452e-001
    outer loop
      vertex 1.376281e+000 8.627273e+000 -8.035395e-001
      vertex 8.279229e-001 8.458706e+000 -1.655846e+000
      vertex 4.833724e-001 8.917397e+000 -8.035395e-001
    endloop
  endfacet
  facet normal 1.465271e-001 8.945791e-001 -4.222062e-001
    outer loop
      vertex 4.833724e-001 8.917397e+000 -8.035395e-001
      vertex 8.279229e-001 8.458706e+000 -1.655846e+000
      vertex -2.214634e-002 8.627687e+000 -1.592822e+000
    endloop
  endfacet
  facet normal -3.115523e-003 9.393981e-001 -3.428143e-001
    outer loop
      vertex 4.833724e-001 8.917397e+000 -8.035395e-001
      vertex -2.214634e-002 8.627687e+000 -1.592822e+000
      vertex -4.524873e-001 8.940349e+000 -7.321398e-001
    endloop
  endfacet
  facet normal -1.261656e-001 9.104815e-001 -3.938347e-001
    outer loop
      vertex -4.524873e-001 8.940349e+000 -7.321398e-001
      vertex -2.214634e-002 8.627687e+000 -1.592822e+000
      vertex -8.705298e-001 8.589836e+000 -1.408547e+000
    endloop
  endfacet
  facet normal -7.745019e-001 5.627087e-001 2.889735e-001
    outer loop
      vertex -2.279077e+000 7.566467e+000 1.408547e+000
      vertex -2.146899e+000 8.095757e+000 7.321397e-001
      vertex -2.741616e+000 7.277199e+000 7.321397e-001
    endloop
  endfacet
  facet normal -7.056155e-001 7.056163e-001 6.490334e-002
    outer loop
      vertex -2.146899e+000 8.095757e+000 7.321397e-001
      vertex -1.851292e+000 8.458706e+000 0.000000e+000
      vertex -2.548085e+000 7.761914e+000 0.000000e+000
    endloop
  endfacet
  facet normal -7.968667e-001 5.789577e-001 1.726598e-001
    outer loop
      vertex -2.146899e+000 8.095757e+000 7.321397e-001
      vertex -2.548085e+000 7.761914e+000 0.000000e+000
      vertex -2.741616e+000 7.277199e+000 7.321397e-001
    endloop
  endfacet
  facet normal -8.891281e-001 4.530329e-001 6.490316e-002
    outer loop
      vertex -2.741616e+000 7.277199e+000 7.321397e-001
      vertex -2.548085e+000 7.761914e+000 0.000000e+000
      vertex -2.995453e+000 6.883903e+000 0.000000e+000
    endloop
  endfacet
  facet normal -5.885171e-001 7.907546e-001 -1.683889e-001
    outer loop
      vertex -1.851292e+000 8.458706e+000 0.000000e+000
      vertex -1.414759e+000 8.627687e+000 -7.321397e-001
      vertex -2.158394e+000 8.059034e+000 -8.035395e-001
    endloop
  endfacet
  facet normal -7.047719e-001 7.047727e-001 -8.119145e-002
    outer loop
      vertex -1.851292e+000 8.458706e+000 0.000000e+000
      vertex -2.158394e+000 8.059034e+000 -8.035395e-001
      vertex -2.548085e+000 7.761914e+000 0.000000e+000
    endloop
  endfacet
  facet normal -7.969058e-001 5.789859e-001 -1.723849e-001
    outer loop
      vertex -2.548085e+000 7.761914e+000 0.000000e+000
      vertex -2.158394e+000 8.059034e+000 -8.035395e-001
      vertex -2.710243e+000 7.299480e+000 -8.035395e-001
    endloop
  endfacet
  facet normal -8.880650e-001 4.524913e-001 -8.119155e-002
    outer loop
      vertex -2.548085e+000 7.761914e+000 0.000000e+000
      vertex -2.710243e+000 7.299480e+000 -8.035395e-001
      vertex -2.995453e+000 6.883903e+000 0.000000e+000
    endloop
  endfacet
  facet normal -9.339141e-001 3.153562e-001 -1.683894e-001
    outer loop
      vertex -2.995453e+000 6.883903e+000 0.000000e+000
      vertex -2.710243e+000 7.299480e+000 -8.035395e-001
      vertex -3.021268e+000 6.416518e+000 -7.321397e-001
    endloop
  endfacet
  facet normal -4.330979e-001 8.107530e-001 -3.938347e-001
    outer loop
      vertex -1.414759e+000 8.627687e+000 -7.321397e-001
      vertex -8.705298e-001 8.589836e+000 -1.408547e+000
      vertex -1.579135e+000 8.121791e+000 -1.592822e+000
    endloop
  endfacet
  facet normal -5.496438e-001 7.618202e-001 -3.428144e-001
    outer loop
      vertex -1.414759e+000 8.627687e+000 -7.321397e-001
      vertex -1.579135e+000 8.121791e+000 -1.592822e+000
      vertex -2.158394e+000 8.059034e+000 -8.035395e-001
    endloop
  endfacet
  facet normal -6.443629e-001 6.376038e-001 -4.222060e-001
    outer loop
      vertex -2.158394e+000 8.059034e+000 -8.035395e-001
      vertex -1.579135e+000 8.121791e+000 -1.592822e+000
      vertex -2.167530e+000 7.485425e+000 -1.655846e+000
    endloop
  endfacet
  facet normal -7.545102e-001 5.481837e-001 -3.608449e-001
    outer loop
      vertex -2.158394e+000 8.059034e+000 -8.035395e-001
      vertex -2.167530e+000 7.485425e+000 -1.655846e+000
      vertex -2.710243e+000 7.299480e+000 -8.035395e-001
    endloop
  endfacet
  facet normal -8.055163e-001 4.157951e-001 -4.222060e-001
    outer loop
      vertex -2.710243e+000 7.299480e+000 -8.035395e-001
      vertex -2.167530e+000 7.485425e+000 -1.655846e+000
      vertex -2.590927e+000 6.729178e+000 -1.592822e+000
    endloop
  endfacet
  facet normal -8.943834e-001 2.873268e-001 -3.428143e-001
    outer loop
      vertex -2.710243e+000 7.299480e+000 -8.035395e-001
      vertex -2.590927e+000 6.729178e+000 -1.592822e+000
      vertex -3.021268e+000 6.416518e+000 -7.321397e-001
    endloop
  endfacet
  facet normal -9.049066e-001 1.613643e-001 -3.938344e-001
    outer loop
      vertex -3.021268e+000 6.416518e+000 -7.321397e-001
      vertex -2.590927e+000 6.729178e+000 -1.592822e+000
      vertex -2.817093e+000 5.910621e+000 -1.408547e+000
    endloop
  endfacet
  facet normal -7.745020e-001 -5.627086e-001 2.889734e-001
    outer loop
      vertex -2.279076e+000 4.254776e+000 1.408547e+000
      vertex -2.741615e+000 4.544044e+000 7.321397e-001
      vertex -2.146899e+000 3.725486e+000 7.321398e-001
    endloop
  endfacet
  facet normal -8.891280e-001 -4.530331e-001 6.490331e-002
    outer loop
      vertex -2.741615e+000 4.544044e+000 7.321397e-001
      vertex -2.995453e+000 4.937340e+000 0.000000e+000
      vertex -2.548085e+000 4.059330e+000 0.000000e+000
    endloop
  endfacet
  facet normal -7.968669e-001 -5.789576e-001 1.726596e-001
    outer loop
      vertex -2.741615e+000 4.544044e+000 7.321397e-001
      vertex -2.548085e+000 4.059330e+000 0.000000e+000
      vertex -2.146899e+000 3.725486e+000 7.321398e-001
    endloop
  endfacet
  facet normal -7.056159e-001 -7.056159e-001 6.490330e-002
    outer loop
      vertex -2.146899e+000 3.725486e+000 7.321398e-001
      vertex -2.548085e+000 4.059330e+000 0.000000e+000
      vertex -1.851292e+000 3.362537e+000 0.000000e+000
    endloop
  endfacet
  facet normal -9.339140e-001 -3.153565e-001 -1.683892e-001
    outer loop
      vertex -2.995453e+000 4.937340e+000 0.000000e+000
      vertex -3.021268e+000 5.404725e+000 -7.321397e-001
      vertex -2.710242e+000 4.521762e+000 -8.035395e-001
    endloop
  endfacet
  facet normal -8.880650e-001 -4.524915e-001 -8.119144e-002
    outer loop
      vertex -2.995453e+000 4.937340e+000 0.000000e+000
      vertex -2.710242e+000 4.521762e+000 -8.035395e-001
      vertex -2.548085e+000 4.059330e+000 0.000000e+000
    endloop
  endfacet
  facet normal -7.969059e-001 -5.789858e-001 -1.723846e-001
    outer loop
      vertex -2.548085e+000 4.059330e+000 0.000000e+000
      vertex -2.710242e+000 4.521762e+000 -8.035395e-001
      vertex -2.158394e+000 3.762209e+000 -8.035395e-001
    endloop
  endfacet
  facet normal -7.047723e-001 -7.047723e-001 -8.119141e-002
    outer loop
      vertex -2.548085e+000 4.059330e+000 0.000000e+000
      vertex -2.158394e+000 3.762209e+000 -8.035395e-001
      vertex -1.851292e+000 3.362537e+000 0.000000e+000
    endloop
  endfacet
  facet normal -5.885171e-001 -7.907545e-001 -1.683892e-001
    outer loop
      vertex -1.851292e+000 3.362537e+000 0.000000e+000
      vertex -2.158394e+000 3.762209e+000 -8.035395e-001
      vertex -1.414759e+000 3.193556e+000 -7.321398e-001
    endloop
  endfacet
  facet normal -9.049067e-001 -1.613642e-001 -3.938342e-001
    outer loop
      vertex -3.021268e+000 5.404725e+000 -7.321397e-001
      vertex -2.817093e+000 5.910621e+000 -1.408547e+000
      vertex -2.590927e+000 5.092064e+000 -1.592822e+000
    endloop
  endfacet
  facet normal -8.943834e-001 -2.873271e-001 -3.428139e-001
    outer loop
      vertex -3.021268e+000 5.404725e+000 -7.321397e-001
      vertex -2.590927e+000 5.092064e+000 -1.592822e+000
      vertex -2.710242e+000 4.521762e+000 -8.035395e-001
    endloop
  endfacet
  facet normal -8.055164e-001 -4.157953e-001 -4.222056e-001
    outer loop
      vertex -2.710242e+000 4.521762e+000 -8.035395e-001
      vertex -2.590927e+000 5.092064e+000 -1.592822e+000
      vertex -2.167531e+000 4.335818e+000 -1.655846e+000
    endloop
  endfacet
  facet normal -7.545103e-001 -5.481837e-001 -3.608445e-001
    outer loop
      vertex -2.710242e+000 4.521762e+000 -8.035395e-001
      vertex -2.167531e+000 4.335818e+000 -1.655846e+000
      vertex -2.158394e+000 3.762209e+000 -8.035395e-001
    endloop
  endfacet
  facet normal -6.443630e-001 -6.376038e-001 -4.222057e-001
    outer loop
      vertex -2.158394e+000 3.762209e+000 -8.035395e-001
      vertex -2.167531e+000 4.335818e+000 -1.655846e+000
      vertex -1.579135e+000 3.699452e+000 -1.592822e+000
    endloop
  endfacet
  facet normal -5.496439e-001 -7.618203e-001 -3.428141e-001
    outer loop
      vertex -2.158394e+000 3.762209e+000 -8.035395e-001
      vertex -1.579135e+000 3.699452e+000 -1.592822e+000
      vertex -1.414759e+000 3.193556e+000 -7.321398e-001
    endloop
  endfacet
  facet normal -4.330979e-001 -8.107531e-001 -3.938345e-001
    outer loop
      vertex -1.414759e+000 3.193556e+000 -7.321398e-001
      vertex -1.579135e+000 3.699452e+000 -1.592822e+000
      vertex -8.705300e-001 3.231407e+000 -1.408547e+000
    endloop
  endfacet
  facet normal 2.958334e-001 -9.104816e-001 2.889736e-001
    outer loop
      vertex 8.705301e-001 3.231407e+000 1.408547e+000
      vertex 4.524874e-001 2.880895e+000 7.321397e-001
      vertex 1.414760e+000 3.193556e+000 7.321398e-001
    endloop
  endfacet
  facet normal 1.561047e-001 -9.856058e-001 6.490327e-002
    outer loop
      vertex 4.524874e-001 2.880895e+000 7.321397e-001
      vertex 3.332001e-008 2.761015e+000 0.000000e+000
      vertex 9.732823e-001 2.915168e+000 0.000000e+000
    endloop
  endfacet
  facet normal 3.043760e-001 -9.367731e-001 1.726595e-001
    outer loop
      vertex 4.524874e-001 2.880895e+000 7.321397e-001
      vertex 9.732823e-001 2.915168e+000 0.000000e+000
      vertex 1.414760e+000 3.193556e+000 7.321398e-001
    endloop
  endfacet
  facet normal 4.530334e-001 -8.891279e-001 6.490316e-002
    outer loop
      vertex 1.414760e+000 3.193556e+000 7.321398e-001
      vertex 9.732823e-001 2.915168e+000 0.000000e+000
      vertex 1.851293e+000 3.362537e+000 0.000000e+000
    endloop
  endfacet
  facet normal 1.132658e-002 -9.856554e-001 -1.683897e-001
    outer loop
      vertex 3.332001e-008 2.761015e+000 0.000000e+000
      vertex -4.524873e-001 2.880895e+000 -7.321397e-001
      vertex 4.833727e-001 2.903847e+000 -8.035395e-001
    endloop
  endfacet
  facet normal 1.559181e-001 -9.844275e-001 -8.119173e-002
    outer loop
      vertex 3.332001e-008 2.761015e+000 0.000000e+000
      vertex 4.833727e-001 2.903847e+000 -8.035395e-001
      vertex 9.732823e-001 2.915168e+000 0.000000e+000
    endloop
  endfacet
  facet normal 3.043910e-001 -9.368188e-001 -1.723849e-001
    outer loop
      vertex 9.732823e-001 2.915168e+000 0.000000e+000
      vertex 4.833727e-001 2.903847e+000 -8.035395e-001
      vertex 1.376282e+000 3.193971e+000 -8.035395e-001
    endloop
  endfacet
  facet normal 4.524918e-001 -8.880648e-001 -8.119173e-002
    outer loop
      vertex 9.732823e-001 2.915168e+000 0.000000e+000
      vertex 1.376282e+000 3.193971e+000 -8.035395e-001
      vertex 1.851293e+000 3.362537e+000 0.000000e+000
    endloop
  endfacet
  facet normal 5.701905e-001 -8.040695e-001 -1.683897e-001
    outer loop
      vertex 1.851293e+000 3.362537e+000 0.000000e+000
      vertex 1.376282e+000 3.193971e+000 -8.035395e-001
      vertex 2.146899e+000 3.725487e+000 -7.321398e-001
    endloop
  endfacet
  facet normal -1.261654e-001 -9.104817e-001 -3.938343e-001
    outer loop
      vertex -4.524873e-001 2.880895e+000 -7.321397e-001
      vertex -8.705300e-001 3.231407e+000 -1.408547e+000
      vertex -2.214634e-002 3.193556e+000 -1.592822e+000
    endloop
  endfacet
  facet normal -3.115266e-003 -9.393982e-001 -3.428138e-001
    outer loop
      vertex -4.524873e-001 2.880895e+000 -7.321397e-001
      vertex -2.214634e-002 3.193556e+000 -1.592822e+000
      vertex 4.833727e-001 2.903847e+000 -8.035395e-001
    endloop
  endfacet
  facet normal 1.465271e-001 -8.945793e-001 -4.222057e-001
    outer loop
      vertex 4.833727e-001 2.903847e+000 -8.035395e-001
      vertex -2.214634e-002 3.193556e+000 -1.592822e+000
      vertex 8.279233e-001 3.362537e+000 -1.655846e+000
    endloop
  endfacet
  facet normal 2.881974e-001 -8.869799e-001 -3.608448e-001
    outer loop
      vertex 4.833727e-001 2.903847e+000 -8.035395e-001
      vertex 8.279233e-001 3.362537e+000 -1.655846e+000
      vertex 1.376282e+000 3.193971e+000 -8.035395e-001
    endloop
  endfacet
  facet normal 4.072781e-001 -8.098561e-001 -4.222058e-001
    outer loop
      vertex 1.376282e+000 3.193971e+000 -8.035395e-001
      vertex 8.279233e-001 3.362537e+000 -1.655846e+000
      vertex 1.614969e+000 3.725487e+000 -1.592822e+000
    endloop
  endfacet
  facet normal 5.546849e-001 -7.581578e-001 -3.428141e-001
    outer loop
      vertex 1.376282e+000 3.193971e+000 -8.035395e-001
      vertex 1.614969e+000 3.725487e+000 -1.592822e+000
      vertex 2.146899e+000 3.725487e+000 -7.321398e-001
    endloop
  endfacet
  facet normal 6.372376e-001 -6.624369e-001 -3.938344e-001
    outer loop
      vertex 2.146899e+000 3.725487e+000 -7.321398e-001
      vertex 1.614969e+000 3.725487e+000 -1.592822e+000
      vertex 2.279077e+000 4.254776e+000 -1.408547e+000
    endloop
  endfacet
  facet normal 7.745019e-001 5.627087e-001 -2.889735e-001
    outer loop
      vertex 2.279076e+000 7.566467e+000 -1.408547e+000
      vertex 2.146899e+000 8.095757e+000 -7.321397e-001
      vertex 2.741615e+000 7.277200e+000 -7.321397e-001
    endloop
  endfacet
  facet normal 7.056159e-001 7.056159e-001 -6.490301e-002
    outer loop
      vertex 2.146899e+000 8.095757e+000 -7.321397e-001
      vertex 1.851292e+000 8.458706e+000 0.000000e+000
      vertex 2.548084e+000 7.761913e+000 0.000000e+000
    endloop
  endfacet
  facet normal 7.968668e-001 5.789578e-001 -1.726592e-001
    outer loop
      vertex 2.146899e+000 8.095757e+000 -7.321397e-001
      vertex 2.548084e+000 7.761913e+000 0.000000e+000
      vertex 2.741615e+000 7.277200e+000 -7.321397e-001
    endloop
  endfacet
  facet normal 8.891278e-001 4.530335e-001 -6.490304e-002
    outer loop
      vertex 2.741615e+000 7.277200e+000 -7.321397e-001
      vertex 2.548084e+000 7.761913e+000 0.000000e+000
      vertex 2.995453e+000 6.883904e+000 0.000000e+000
    endloop
  endfacet
  facet normal 5.885171e-001 7.907546e-001 1.683889e-001
    outer loop
      vertex 1.851292e+000 8.458706e+000 0.000000e+000
      vertex 1.414759e+000 8.627687e+000 7.321397e-001
      vertex 2.158394e+000 8.059034e+000 8.035395e-001
    endloop
  endfacet
  facet normal 7.047722e-001 7.047724e-001 8.119112e-002
    outer loop
      vertex 1.851292e+000 8.458706e+000 0.000000e+000
      vertex 2.158394e+000 8.059034e+000 8.035395e-001
      vertex 2.548084e+000 7.761913e+000 0.000000e+000
    endloop
  endfacet
  facet normal 7.969059e-001 5.789858e-001 1.723845e-001
    outer loop
      vertex 2.548084e+000 7.761913e+000 0.000000e+000
      vertex 2.158394e+000 8.059034e+000 8.035395e-001
      vertex 2.710242e+000 7.299480e+000 8.035395e-001
    endloop
  endfacet
  facet normal 8.880647e-001 4.524919e-001 8.119169e-002
    outer loop
      vertex 2.548084e+000 7.761913e+000 0.000000e+000
      vertex 2.710242e+000 7.299480e+000 8.035395e-001
      vertex 2.995453e+000 6.883904e+000 0.000000e+000
    endloop
  endfacet
  facet normal 9.339139e-001 3.153567e-001 1.683895e-001
    outer loop
      vertex 2.995453e+000 6.883904e+000 0.000000e+000
      vertex 2.710242e+000 7.299480e+000 8.035395e-001
      vertex 3.021268e+000 6.416518e+000 7.321397e-001
    endloop
  endfacet
  facet normal 4.330982e-001 8.107532e-001 3.938339e-001
    outer loop
      vertex 1.414759e+000 8.627687e+000 7.321397e-001
      vertex 8.705297e-001 8.589837e+000 1.408547e+000
      vertex 1.579135e+000 8.121792e+000 1.592822e+000
    endloop
  endfacet
  facet normal 5.496441e-001 7.618204e-001 3.428136e-001
    outer loop
      vertex 1.414759e+000 8.627687e+000 7.321397e-001
      vertex 1.579135e+000 8.121792e+000 1.592822e+000
      vertex 2.158394e+000 8.059034e+000 8.035395e-001
    endloop
  endfacet
  facet normal 6.443633e-001 6.376037e-001 4.222054e-001
    outer loop
      vertex 2.158394e+000 8.059034e+000 8.035395e-001
      vertex 1.579135e+000 8.121792e+000 1.592822e+000
      vertex 2.167530e+000 7.485425e+000 1.655846e+000
    endloop
  endfacet
  facet normal 7.545105e-001 5.481837e-001 3.608443e-001
    outer loop
      vertex 2.158394e+000 8.059034e+000 8.035395e-001
      vertex 2.167530e+000 7.485425e+000 1.655846e+000
      vertex 2.710242e+000 7.299480e+000 8.035395e-001
    endloop
  endfacet
  facet normal 8.055165e-001 4.157953e-001 4.222054e-001
    outer loop
      vertex 2.710242e+000 7.299480e+000 8.035395e-001
      vertex 2.167530e+000 7.485425e+000 1.655846e+000
      vertex 2.590927e+000 6.729179e+000 1.592822e+000
    endloop
  endfacet
  facet normal 8.943834e-001 2.873273e-001 3.428139e-001
    outer loop
      vertex 2.710242e+000 7.299480e+000 8.035395e-001
      vertex 2.590927e+000 6.729179e+000 1.592822e+000
      vertex 3.021268e+000 6.416518e+000 7.321397e-001
    endloop
  endfacet
  facet normal 9.049067e-001 1.613644e-001 3.938343e-001
    outer loop
      vertex 3.021268e+000 6.416518e+000 7.321397e-001
      vertex 2.590927e+000 6.729179e+000 1.592822e+000
      vertex 2.817093e+000 5.910622e+000 1.408547e+000
    endloop
  endfacet
  facet normal -2.958335e-001 9.104815e-001 -2.889742e-001
    outer loop
      vertex -8.705298e-001 8.589836e+000 -1.408547e+000
      vertex -1.414759e+000 8.627687e+000 -7.321397e-001
      vertex -4.524873e-001 8.940349e+000 -7.321398e-001
    endloop
  endfacet
  facet normal -4.530342e-001 8.891274e-001 -6.490332e-002
    outer loop
      vertex -1.414759e+000 8.627687e+000 -7.321397e-001
      vertex -1.851292e+000 8.458706e+000 0.000000e+000
      vertex -9.732820e-001 8.906075e+000 0.000000e+000
    endloop
  endfacet
  facet normal -3.043762e-001 9.367730e-001 -1.726601e-001
    outer loop
      vertex -1.414759e+000 8.627687e+000 -7.321397e-001
      vertex -9.732820e-001 8.906075e+000 0.000000e+000
      vertex -4.524873e-001 8.940349e+000 -7.321398e-001
    endloop
  endfacet
  facet normal -1.561048e-001 9.856058e-001 -6.490391e-002
    outer loop
      vertex -4.524873e-001 8.940349e+000 -7.321398e-001
      vertex -9.732820e-001 8.906075e+000 0.000000e+000
      vertex -9.996003e-008 9.060228e+000 0.000000e+000
    endloop
  endfacet
  facet normal -5.701906e-001 8.040695e-001 1.683891e-001
    outer loop
      vertex -1.851292e+000 8.458706e+000 0.000000e+000
      vertex -2.146899e+000 8.095757e+000 7.321397e-001
      vertex -1.376281e+000 8.627273e+000 8.035395e-001
    endloop
  endfacet
  facet normal -4.524926e-001 8.880644e-001 8.119165e-002
    outer loop
      vertex -1.851292e+000 8.458706e+000 0.000000e+000
      vertex -1.376281e+000 8.627273e+000 8.035395e-001
      vertex -9.732820e-001 8.906075e+000 0.000000e+000
    endloop
  endfacet
  facet normal -3.043911e-001 9.368187e-001 1.723852e-001
    outer loop
      vertex -9.732820e-001 8.906075e+000 0.000000e+000
      vertex -1.376281e+000 8.627273e+000 8.035395e-001
      vertex -4.833726e-001 8.917397e+000 8.035395e-001
    endloop
  endfacet
  facet normal -1.559182e-001 9.844275e-001 8.119204e-002
    outer loop
      vertex -9.732820e-001 8.906075e+000 0.000000e+000
      vertex -4.833726e-001 8.917397e+000 8.035395e-001
      vertex -9.996003e-008 9.060228e+000 0.000000e+000
    endloop
  endfacet
  facet normal -1.132631e-002 9.856554e-001 1.683901e-001
    outer loop
      vertex -9.996003e-008 9.060228e+000 0.000000e+000
      vertex -4.833726e-001 8.917397e+000 8.035395e-001
      vertex 4.524871e-001 8.940349e+000 7.321398e-001
    endloop
  endfacet
  facet normal -6.372373e-001 6.624373e-001 3.938343e-001
    outer loop
      vertex -2.146899e+000 8.095757e+000 7.321397e-001
      vertex -2.279077e+000 7.566467e+000 1.408547e+000
      vertex -1.614968e+000 8.095757e+000 1.592822e+000
    endloop
  endfacet
  facet normal -5.546849e-001 7.581577e-001 3.428141e-001
    outer loop
      vertex -2.146899e+000 8.095757e+000 7.321397e-001
      vertex -1.614968e+000 8.095757e+000 1.592822e+000
      vertex -1.376281e+000 8.627273e+000 8.035395e-001
    endloop
  endfacet
  facet normal -4.072778e-001 8.098561e-001 4.222061e-001
    outer loop
      vertex -1.376281e+000 8.627273e+000 8.035395e-001
      vertex -1.614968e+000 8.095757e+000 1.592822e+000
      vertex -8.279231e-001 8.458706e+000 1.655846e+000
    endloop
  endfacet
  facet normal -2.881975e-001 8.869797e-001 3.608452e-001
    outer loop
      vertex -1.376281e+000 8.627273e+000 8.035395e-001
      vertex -8.279231e-001 8.458706e+000 1.655846e+000
      vertex -4.833726e-001 8.917397e+000 8.035395e-001
    endloop
  endfacet
  facet normal -1.465271e-001 8.945791e-001 4.222062e-001
    outer loop
      vertex -4.833726e-001 8.917397e+000 8.035395e-001
      vertex -8.279231e-001 8.458706e+000 1.655846e+000
      vertex 2.214614e-002 8.627687e+000 1.592822e+000
    endloop
  endfacet
  facet normal 3.115523e-003 9.393981e-001 3.428143e-001
    outer loop
      vertex -4.833726e-001 8.917397e+000 8.035395e-001
      vertex 2.214614e-002 8.627687e+000 1.592822e+000
      vertex 4.524871e-001 8.940349e+000 7.321398e-001
    endloop
  endfacet
  facet normal 1.261645e-001 9.104818e-001 3.938343e-001
    outer loop
      vertex 4.524871e-001 8.940349e+000 7.321398e-001
      vertex 2.214614e-002 8.627687e+000 1.592822e+000
      vertex 8.705297e-001 8.589837e+000 1.408547e+000
    endloop
  endfacet
  facet normal -9.573371e-001 0.000000e+000 -2.889734e-001
    outer loop
      vertex -2.817093e+000 5.910621e+000 -1.408547e+000
      vertex -3.021268e+000 5.404725e+000 -7.321397e-001
      vertex -3.021268e+000 6.416518e+000 -7.321397e-001
    endloop
  endfacet
  facet normal -9.856059e-001 -1.561046e-001 -6.490299e-002
    outer loop
      vertex -3.021268e+000 5.404725e+000 -7.321397e-001
      vertex -2.995453e+000 4.937340e+000 0.000000e+000
      vertex -3.149606e+000 5.910621e+000 0.000000e+000
    endloop
  endfacet
  facet normal -9.849816e-001 -0.000000e+000 -1.726592e-001
    outer loop
      vertex -3.021268e+000 5.404725e+000 -7.321397e-001
      vertex -3.149606e+000 5.910621e+000 0.000000e+000
      vertex -3.021268e+000 6.416518e+000 -7.321397e-001
    endloop
  endfacet
  facet normal -9.856059e-001 1.561043e-001 -6.490311e-002
    outer loop
      vertex -3.021268e+000 6.416518e+000 -7.321397e-001
      vertex -3.149606e+000 5.910621e+000 0.000000e+000
      vertex -2.995453e+000 6.883903e+000 0.000000e+000
    endloop
  endfacet
  facet normal -9.409141e-001 -2.938124e-001 1.683893e-001
    outer loop
      vertex -2.995453e+000 4.937340e+000 0.000000e+000
      vertex -2.741615e+000 4.544044e+000 7.321397e-001
      vertex -3.008983e+000 5.441191e+000 8.035395e-001
    endloop
  endfacet
  facet normal -9.844275e-001 -1.559180e-001 8.119131e-002
    outer loop
      vertex -2.995453e+000 4.937340e+000 0.000000e+000
      vertex -3.008983e+000 5.441191e+000 8.035395e-001
      vertex -3.149606e+000 5.910621e+000 0.000000e+000
    endloop
  endfacet
  facet normal -9.850298e-001 0.000000e+000 1.723844e-001
    outer loop
      vertex -3.149606e+000 5.910621e+000 0.000000e+000
      vertex -3.008983e+000 5.441191e+000 8.035395e-001
      vertex -3.008983e+000 6.380051e+000 8.035395e-001
    endloop
  endfacet
  facet normal -9.844276e-001 1.559177e-001 8.119150e-002
    outer loop
      vertex -3.149606e+000 5.910621e+000 0.000000e+000
      vertex -3.008983e+000 6.380051e+000 8.035395e-001
      vertex -2.995453e+000 6.883903e+000 0.000000e+000
    endloop
  endfacet
  facet normal -9.409143e-001 2.938118e-001 1.683894e-001
    outer loop
      vertex -2.995453e+000 6.883903e+000 0.000000e+000
      vertex -3.008983e+000 6.380051e+000 8.035395e-001
      vertex -2.741616e+000 7.277199e+000 7.321397e-001
    endloop
  endfacet
  facet normal -8.269325e-001 -4.013443e-001 3.938342e-001
    outer loop
      vertex -2.741615e+000 4.544044e+000 7.321397e-001
      vertex -2.279076e+000 4.254776e+000 1.408547e+000
      vertex -2.577240e+000 5.049940e+000 1.592822e+000
    endloop
  endfacet
  facet normal -8.924579e-001 -2.932532e-001 3.428141e-001
    outer loop
      vertex -2.741615e+000 4.544044e+000 7.321397e-001
      vertex -2.577240e+000 5.049940e+000 1.592822e+000
      vertex -3.008983e+000 5.441191e+000 8.035395e-001
    endloop
  endfacet
  facet normal -8.960747e-001 -1.370851e-001 4.222059e-001
    outer loop
      vertex -3.008983e+000 5.441191e+000 8.035395e-001
      vertex -2.577240e+000 5.049940e+000 1.592822e+000
      vertex -2.679215e+000 5.910621e+000 1.655846e+000
    endloop
  endfacet
  facet normal -9.326259e-001 0.000000e+000 3.608448e-001
    outer loop
      vertex -3.008983e+000 5.441191e+000 8.035395e-001
      vertex -2.679215e+000 5.910621e+000 1.655846e+000
      vertex -3.008983e+000 6.380051e+000 8.035395e-001
    endloop
  endfacet
  facet normal -8.960747e-001 1.370850e-001 4.222059e-001
    outer loop
      vertex -3.008983e+000 6.380051e+000 8.035395e-001
      vertex -2.679215e+000 5.910621e+000 1.655846e+000
      vertex -2.577240e+000 6.771303e+000 1.592822e+000
    endloop
  endfacet
  facet normal -8.924580e-001 2.932526e-001 3.428143e-001
    outer loop
      vertex -3.008983e+000 6.380051e+000 8.035395e-001
      vertex -2.577240e+000 6.771303e+000 1.592822e+000
      vertex -2.741616e+000 7.277199e+000 7.321397e-001
    endloop
  endfacet
  facet normal -8.269324e-001 4.013441e-001 3.938346e-001
    outer loop
      vertex -2.741616e+000 7.277199e+000 7.321397e-001
      vertex -2.577240e+000 6.771303e+000 1.592822e+000
      vertex -2.279077e+000 7.566467e+000 1.408547e+000
    endloop
  endfacet
  facet normal -2.958333e-001 -9.104816e-001 -2.889737e-001
    outer loop
      vertex -8.705300e-001 3.231407e+000 -1.408547e+000
      vertex -4.524873e-001 2.880895e+000 -7.321397e-001
      vertex -1.414759e+000 3.193556e+000 -7.321398e-001
    endloop
  endfacet
  facet normal -1.561048e-001 -9.856058e-001 -6.490324e-002
    outer loop
      vertex -4.524873e-001 2.880895e+000 -7.321397e-001
      vertex 3.332001e-008 2.761015e+000 0.000000e+000
      vertex -9.732819e-001 2.915168e+000 0.000000e+000
    endloop
  endfacet
  facet normal -3.043760e-001 -9.367732e-001 -1.726593e-001
    outer loop
      vertex -4.524873e-001 2.880895e+000 -7.321397e-001
      vertex -9.732819e-001 2.915168e+000 0.000000e+000
      vertex -1.414759e+000 3.193556e+000 -7.321398e-001
    endloop
  endfacet
  facet normal -4.530334e-001 -8.891279e-001 -6.490296e-002
    outer loop
      vertex -1.414759e+000 3.193556e+000 -7.321398e-001
      vertex -9.732819e-001 2.915168e+000 0.000000e+000
      vertex -1.851292e+000 3.362537e+000 0.000000e+000
    endloop
  endfacet
  facet normal -1.132610e-002 -9.856555e-001 1.683894e-001
    outer loop
      vertex 3.332001e-008 2.761015e+000 0.000000e+000
      vertex 4.524874e-001 2.880895e+000 7.321397e-001
      vertex -4.833722e-001 2.903847e+000 8.035395e-001
    endloop
  endfacet
  facet normal -1.559182e-001 -9.844275e-001 8.119120e-002
    outer loop
      vertex 3.332001e-008 2.761015e+000 0.000000e+000
      vertex -4.833722e-001 2.903847e+000 8.035395e-001
      vertex -9.732819e-001 2.915168e+000 0.000000e+000
    endloop
  endfacet
  facet normal -3.043909e-001 -9.368190e-001 1.723843e-001
    outer loop
      vertex -9.732819e-001 2.915168e+000 0.000000e+000
      vertex -4.833722e-001 2.903847e+000 8.035395e-001
      vertex -1.376281e+000 3.193970e+000 8.035395e-001
    endloop
  endfacet
  facet normal -4.524917e-001 -8.880649e-001 8.119116e-002
    outer loop
      vertex -9.732819e-001 2.915168e+000 0.000000e+000
      vertex -1.376281e+000 3.193970e+000 8.035395e-001
      vertex -1.851292e+000 3.362537e+000 0.000000e+000
    endloop
  endfacet
  facet normal -5.701907e-001 -8.040694e-001 1.683893e-001
    outer loop
      vertex -1.851292e+000 3.362537e+000 0.000000e+000
      vertex -1.376281e+000 3.193970e+000 8.035395e-001
      vertex -2.146899e+000 3.725486e+000 7.321398e-001
    endloop
  endfacet
  facet normal 1.261650e-001 -9.104816e-001 3.938345e-001
    outer loop
      vertex 4.524874e-001 2.880895e+000 7.321397e-001
      vertex 8.705301e-001 3.231407e+000 1.408547e+000
      vertex 2.214654e-002 3.193556e+000 1.592822e+000
    endloop
  endfacet
  facet normal 3.115817e-003 -9.393980e-001 3.428144e-001
    outer loop
      vertex 4.524874e-001 2.880895e+000 7.321397e-001
      vertex 2.214654e-002 3.193556e+000 1.592822e+000
      vertex -4.833722e-001 2.903847e+000 8.035395e-001
    endloop
  endfacet
  facet normal -1.465261e-001 -8.945794e-001 4.222060e-001
    outer loop
      vertex -4.833722e-001 2.903847e+000 8.035395e-001
      vertex 2.214654e-002 3.193556e+000 1.592822e+000
      vertex -8.279227e-001 3.362536e+000 1.655846e+000
    endloop
  endfacet
  facet normal -2.881972e-001 -8.869799e-001 3.608448e-001
    outer loop
      vertex -4.833722e-001 2.903847e+000 8.035395e-001
      vertex -8.279227e-001 3.362536e+000 1.655846e+000
      vertex -1.376281e+000 3.193970e+000 8.035395e-001
    endloop
  endfacet
  facet normal -4.072782e-001 -8.098559e-001 4.222060e-001
    outer loop
      vertex -1.376281e+000 3.193970e+000 8.035395e-001
      vertex -8.279227e-001 3.362536e+000 1.655846e+000
      vertex -1.614968e+000 3.725486e+000 1.592822e+000
    endloop
  endfacet
  facet normal -5.546850e-001 -7.581576e-001 3.428143e-001
    outer loop
      vertex -1.376281e+000 3.193970e+000 8.035395e-001
      vertex -1.614968e+000 3.725486e+000 1.592822e+000
      vertex -2.146899e+000 3.725486e+000 7.321398e-001
    endloop
  endfacet
  facet normal -6.372372e-001 -6.624373e-001 3.938344e-001
    outer loop
      vertex -2.146899e+000 3.725486e+000 7.321398e-001
      vertex -1.614968e+000 3.725486e+000 1.592822e+000
      vertex -2.279076e+000 4.254776e+000 1.408547e+000
    endloop
  endfacet
  facet normal 7.745022e-001 -5.627083e-001 -2.889736e-001
    outer loop
      vertex 2.279077e+000 4.254776e+000 -1.408547e+000
      vertex 2.741616e+000 4.544044e+000 -7.321398e-001
      vertex 2.146899e+000 3.725487e+000 -7.321398e-001
    endloop
  endfacet
  facet normal 8.891280e-001 -4.530329e-001 -6.490374e-002
    outer loop
      vertex 2.741616e+000 4.544044e+000 -7.321398e-001
      vertex 2.995454e+000 4.937340e+000 0.000000e+000
      vertex 2.548086e+000 4.059330e+000 0.000000e+000
    endloop
  endfacet
  facet normal 7.968670e-001 -5.789573e-001 -1.726600e-001
    outer loop
      vertex 2.741616e+000 4.544044e+000 -7.321398e-001
      vertex 2.548086e+000 4.059330e+000 0.000000e+000
      vertex 2.146899e+000 3.725487e+000 -7.321398e-001
    endloop
  endfacet
  facet normal 7.056159e-001 -7.056159e-001 -6.490353e-002
    outer loop
      vertex 2.146899e+000 3.725487e+000 -7.321398e-001
      vertex 2.548086e+000 4.059330e+000 0.000000e+000
      vertex 1.851293e+000 3.362537e+000 0.000000e+000
    endloop
  endfacet
  facet normal 9.339139e-001 -3.153563e-001 1.683899e-001
    outer loop
      vertex 2.995454e+000 4.937340e+000 0.000000e+000
      vertex 3.021268e+000 5.404726e+000 7.321398e-001
      vertex 2.710243e+000 4.521763e+000 8.035395e-001
    endloop
  endfacet
  facet normal 8.880650e-001 -4.524913e-001 8.119209e-002
    outer loop
      vertex 2.995454e+000 4.937340e+000 0.000000e+000
      vertex 2.710243e+000 4.521763e+000 8.035395e-001
      vertex 2.548086e+000 4.059330e+000 0.000000e+000
    endloop
  endfacet
  facet normal 7.969058e-001 -5.789858e-001 1.723852e-001
    outer loop
      vertex 2.548086e+000 4.059330e+000 0.000000e+000
      vertex 2.710243e+000 4.521763e+000 8.035395e-001
      vertex 2.158395e+000 3.762209e+000 8.035395e-001
    endloop
  endfacet
  facet normal 7.047722e-001 -7.047722e-001 8.119202e-002
    outer loop
      vertex 2.548086e+000 4.059330e+000 0.000000e+000
      vertex 2.158395e+000 3.762209e+000 8.035395e-001
      vertex 1.851293e+000 3.362537e+000 0.000000e+000
    endloop
  endfacet
  facet normal 5.885173e-001 -7.907543e-001 1.683896e-001
    outer loop
      vertex 1.851293e+000 3.362537e+000 0.000000e+000
      vertex 2.158395e+000 3.762209e+000 8.035395e-001
      vertex 1.414760e+000 3.193556e+000 7.321398e-001
    endloop
  endfacet
  facet normal 9.049067e-001 -1.613641e-001 3.938343e-001
    outer loop
      vertex 3.021268e+000 5.404726e+000 7.321398e-001
      vertex 2.817093e+000 5.910622e+000 1.408547e+000
      vertex 2.590927e+000 5.092064e+000 1.592822e+000
    endloop
  endfacet
  facet normal 8.943835e-001 -2.873270e-001 3.428139e-001
    outer loop
      vertex 3.021268e+000 5.404726e+000 7.321398e-001
      vertex 2.590927e+000 5.092064e+000 1.592822e+000
      vertex 2.710243e+000 4.521763e+000 8.035395e-001
    endloop
  endfacet
  facet normal 8.055163e-001 -4.157954e-001 4.222057e-001
    outer loop
      vertex 2.710243e+000 4.521763e+000 8.035395e-001
      vertex 2.590927e+000 5.092064e+000 1.592822e+000
      vertex 2.167531e+000 4.335819e+000 1.655846e+000
    endloop
  endfacet
  facet normal 7.545103e-001 -5.481837e-001 3.608447e-001
    outer loop
      vertex 2.710243e+000 4.521763e+000 8.035395e-001
      vertex 2.167531e+000 4.335819e+000 1.655846e+000
      vertex 2.158395e+000 3.762209e+000 8.035395e-001
    endloop
  endfacet
  facet normal 6.443632e-001 -6.376036e-001 4.222057e-001
    outer loop
      vertex 2.158395e+000 3.762209e+000 8.035395e-001
      vertex 2.167531e+000 4.335819e+000 1.655846e+000
      vertex 1.579135e+000 3.699452e+000 1.592822e+000
    endloop
  endfacet
  facet normal 5.496442e-001 -7.618200e-001 3.428141e-001
    outer loop
      vertex 2.158395e+000 3.762209e+000 8.035395e-001
      vertex 1.579135e+000 3.699452e+000 1.592822e+000
      vertex 1.414760e+000 3.193556e+000 7.321398e-001
    endloop
  endfacet
  facet normal 4.330980e-001 -8.107531e-001 3.938345e-001
    outer loop
      vertex 1.414760e+000 3.193556e+000 7.321398e-001
      vertex 1.579135e+000 3.699452e+000 1.592822e+000
      vertex 8.705301e-001 3.231407e+000 1.408547e+000
    endloop
  endfacet
  facet normal 5.243043e-002 1.613642e-001 -9.855012e-001
    outer loop
      vertex 0.000000e+000 5.910622e+000 -3.149606e+000
      vertex -2.659654e-001 6.729179e+000 -3.029727e+000
      vertex 6.963063e-001 6.416518e+000 -3.029727e+000
    endloop
  endfacet
  facet normal -3.019532e-002 4.122323e-001 -9.105783e-001
    outer loop
      vertex -2.659654e-001 6.729179e+000 -3.029727e+000
      vertex -5.116846e-001 7.485425e+000 -2.679215e+000
      vertex 4.352647e-001 7.250229e+000 -2.817093e+000
    endloop
  endfacet
  facet normal 8.839937e-002 2.720652e-001 -9.582098e-001
    outer loop
      vertex -2.659654e-001 6.729179e+000 -3.029727e+000
      vertex 4.352647e-001 7.250229e+000 -2.817093e+000
      vertex 6.963063e-001 6.416518e+000 -3.029727e+000
    endloop
  endfacet
  facet normal 2.667327e-001 3.157545e-001 -9.105783e-001
    outer loop
      vertex 6.963063e-001 6.416518e+000 -3.029727e+000
      vertex 4.352647e-001 7.250229e+000 -2.817093e+000
      vertex 1.339607e+000 6.883904e+000 -2.679215e+000
    endloop
  endfacet
  facet normal -1.028593e-001 6.342288e-001 -7.662727e-001
    outer loop
      vertex -5.116846e-001 7.485425e+000 -2.679215e+000
      vertex -7.184526e-001 8.121791e+000 -2.124752e+000
      vertex 1.914695e-001 8.019011e+000 -2.331963e+000
    endloop
  endfacet
  facet normal 1.019895e-002 5.359489e-001 -8.441888e-001
    outer loop
      vertex -5.116846e-001 7.485425e+000 -2.679215e+000
      vertex 1.914695e-001 8.019011e+000 -2.331963e+000
      vertex 4.352647e-001 7.250229e+000 -2.817093e+000
    endloop
  endfacet
  facet normal 1.837735e-001 5.655972e-001 -8.039447e-001
    outer loop
      vertex 4.352647e-001 7.250229e+000 -2.817093e+000
      vertex 1.914695e-001 8.019011e+000 -2.331963e+000
      vertex 1.084378e+000 7.728888e+000 -2.331963e+000
    endloop
  endfacet
  facet normal 3.067718e-001 4.395863e-001 -8.441889e-001
    outer loop
      vertex 4.352647e-001 7.250229e+000 -2.817093e+000
      vertex 1.084378e+000 7.728888e+000 -2.331963e+000
      vertex 1.339607e+000 6.883904e+000 -2.679215e+000
    endloop
  endfacet
  facet normal 4.560049e-001 4.526424e-001 -7.662730e-001
    outer loop
      vertex 1.339607e+000 6.883904e+000 -2.679215e+000
      vertex 1.084378e+000 7.728888e+000 -2.331963e+000
      vertex 1.880933e+000 7.277200e+000 -2.124752e+000
    endloop
  endfacet
  facet normal -1.585692e-001 8.107530e-001 -5.635028e-001
    outer loop
      vertex -7.184526e-001 8.121791e+000 -2.124752e+000
      vertex -8.705298e-001 8.589836e+000 -1.408547e+000
      vertex -2.214634e-002 8.627687e+000 -1.592822e+000
    endloop
  endfacet
  facet normal -6.081427e-002 7.618201e-001 -6.449277e-001
    outer loop
      vertex -7.184526e-001 8.121791e+000 -2.124752e+000
      vertex -2.214634e-002 8.627687e+000 -1.592822e+000
      vertex 1.914695e-001 8.019011e+000 -2.331963e+000
    endloop
  endfacet
  facet normal 1.101540e-001 7.826346e-001 -6.126574e-001
    outer loop
      vertex 1.914695e-001 8.019011e+000 -2.331963e+000
      vertex -2.214634e-002 8.627687e+000 -1.592822e+000
      vertex 8.279229e-001 8.458706e+000 -1.655846e+000
    endloop
  endfacet
  facet normal 2.286207e-001 7.036226e-001 -6.727911e-001
    outer loop
      vertex 1.914695e-001 8.019011e+000 -2.331963e+000
      vertex 8.279229e-001 8.458706e+000 -1.655846e+000
      vertex 1.084378e+000 7.728888e+000 -2.331963e+000
    endloop
  endfacet
  facet normal 3.709050e-001 6.979116e-001 -6.126572e-001
    outer loop
      vertex 1.084378e+000 7.728888e+000 -2.331963e+000
      vertex 8.279229e-001 8.458706e+000 -1.655846e+000
      vertex 1.614968e+000 8.095757e+000 -1.592822e+000
    endloop
  endfacet
  facet normal 4.969863e-001 5.805801e-001 -6.449274e-001
    outer loop
      vertex 1.084378e+000 7.728888e+000 -2.331963e+000
      vertex 1.614968e+000 8.095757e+000 -1.592822e+000
      vertex 1.880933e+000 7.277200e+000 -2.124752e+000
    endloop
  endfacet
  facet normal 6.048335e-001 5.627088e-001 -5.635026e-001
    outer loop
      vertex 1.880933e+000 7.277200e+000 -2.124752e+000
      vertex 1.614968e+000 8.095757e+000 -1.592822e+000
      vertex 2.279076e+000 7.566467e+000 -1.408547e+000
    endloop
  endfacet
  facet normal -1.372646e-001 9.972853e-002 -9.855012e-001
    outer loop
      vertex 0.000000e+000 5.910622e+000 -3.149606e+000
      vertex -8.606820e-001 5.910622e+000 -3.029727e+000
      vertex -2.659654e-001 6.729179e+000 -3.029727e+000
    endloop
  endfacet
  facet normal -4.013872e-001 9.866856e-002 -9.105783e-001
    outer loop
      vertex -8.606820e-001 5.910622e+000 -3.029727e+000
      vertex -1.655846e+000 5.910622e+000 -2.679215e+000
      vertex -1.139538e+000 6.738544e+000 -2.817094e+000
    endloop
  endfacet
  facet normal -2.314319e-001 1.681451e-001 -9.582101e-001
    outer loop
      vertex -8.606820e-001 5.910622e+000 -3.029727e+000
      vertex -1.139538e+000 6.738544e+000 -2.817094e+000
      vertex -2.659654e-001 6.729179e+000 -3.029727e+000
    endloop
  endfacet
  facet normal -2.178750e-001 3.512515e-001 -9.105783e-001
    outer loop
      vertex -2.659654e-001 6.729179e+000 -3.029727e+000
      vertex -1.139538e+000 6.738544e+000 -2.817094e+000
      vertex -5.116846e-001 7.485425e+000 -2.679215e+000
    endloop
  endfacet
  facet normal -6.349724e-001 9.816229e-002 -7.662730e-001
    outer loop
      vertex -1.655846e+000 5.910622e+000 -2.679215e+000
      vertex -2.324961e+000 5.910622e+000 -2.124752e+000
      vertex -1.946031e+000 6.744248e+000 -2.331963e+000
    endloop
  endfacet
  facet normal -5.065665e-001 1.753165e-001 -8.441886e-001
    outer loop
      vertex -1.655846e+000 5.910622e+000 -2.679215e+000
      vertex -1.946031e+000 6.744248e+000 -2.331963e+000
      vertex -1.139538e+000 6.738544e+000 -2.817094e+000
    endloop
  endfacet
  facet normal -4.811260e-001 3.495586e-001 -8.039444e-001
    outer loop
      vertex -1.139538e+000 6.738544e+000 -2.817094e+000
      vertex -1.946031e+000 6.744248e+000 -2.331963e+000
      vertex -1.394183e+000 7.503802e+000 -2.331963e+000
    endloop
  endfacet
  facet normal -3.232738e-001 4.275975e-001 -8.441886e-001
    outer loop
      vertex -1.139538e+000 6.738544e+000 -2.817094e+000
      vertex -1.394183e+000 7.503802e+000 -2.331963e+000
      vertex -5.116846e-001 7.485425e+000 -2.679215e+000
    endloop
  endfacet
  facet normal -2.895754e-001 5.735610e-001 -7.662727e-001
    outer loop
      vertex -5.116846e-001 7.485425e+000 -2.679215e+000
      vertex -1.394183e+000 7.503802e+000 -2.331963e+000
      vertex -7.184526e-001 8.121791e+000 -2.124752e+000
    endloop
  endfacet
  facet normal -8.200724e-001 9.972865e-002 -5.635029e-001
    outer loop
      vertex -2.324961e+000 5.910622e+000 -2.124752e+000
      vertex -2.817093e+000 5.910621e+000 -1.408547e+000
      vertex -2.590927e+000 6.729178e+000 -1.592822e+000
    endloop
  endfacet
  facet normal -7.433268e-001 1.775777e-001 -6.449275e-001
    outer loop
      vertex -2.324961e+000 5.910622e+000 -2.124752e+000
      vertex -2.590927e+000 6.729178e+000 -1.592822e+000
      vertex -1.946031e+000 6.744248e+000 -2.331963e+000
    endloop
  endfacet
  facet normal -7.102907e-001 3.466096e-001 -6.126573e-001
    outer loop
      vertex -1.946031e+000 6.744248e+000 -2.331963e+000
      vertex -2.590927e+000 6.729178e+000 -1.592822e+000
      vertex -2.167530e+000 7.485425e+000 -1.655846e+000
    endloop
  endfacet
  facet normal -5.985369e-001 4.348626e-001 -6.727913e-001
    outer loop
      vertex -1.946031e+000 6.744248e+000 -2.331963e+000
      vertex -2.167530e+000 7.485425e+000 -1.655846e+000
      vertex -1.394183e+000 7.503802e+000 -2.331963e+000
    endloop
  endfacet
  facet normal -5.491372e-001 5.684183e-001 -6.126574e-001
    outer loop
      vertex -1.394183e+000 7.503802e+000 -2.331963e+000
      vertex -2.167530e+000 7.485425e+000 -1.655846e+000
      vertex -1.579135e+000 8.121791e+000 -1.592822e+000
    endloop
  endfacet
  facet normal -3.985871e-001 6.520713e-001 -6.449274e-001
    outer loop
      vertex -1.394183e+000 7.503802e+000 -2.331963e+000
      vertex -1.579135e+000 8.121791e+000 -1.592822e+000
      vertex -7.184526e-001 8.121791e+000 -2.124752e+000
    endloop
  endfacet
  facet normal -3.482639e-001 7.491174e-001 -5.635028e-001
    outer loop
      vertex -7.184526e-001 8.121791e+000 -2.124752e+000
      vertex -1.579135e+000 8.121791e+000 -1.592822e+000
      vertex -8.705298e-001 8.589836e+000 -1.408547e+000
    endloop
  endfacet
  facet normal -1.372646e-001 -9.972853e-002 -9.855012e-001
    outer loop
      vertex 0.000000e+000 5.910622e+000 -3.149606e+000
      vertex -2.659654e-001 5.092064e+000 -3.029727e+000
      vertex -8.606820e-001 5.910622e+000 -3.029727e+000
    endloop
  endfacet
  facet normal -2.178748e-001 -3.512516e-001 -9.105783e-001
    outer loop
      vertex -2.659654e-001 5.092064e+000 -3.029727e+000
      vertex -5.116847e-001 4.335818e+000 -2.679215e+000
      vertex -1.139538e+000 5.082698e+000 -2.817094e+000
    endloop
  endfacet
  facet normal -2.314319e-001 -1.681451e-001 -9.582101e-001
    outer loop
      vertex -2.659654e-001 5.092064e+000 -3.029727e+000
      vertex -1.139538e+000 5.082698e+000 -2.817094e+000
      vertex -8.606820e-001 5.910622e+000 -3.029727e+000
    endloop
  endfacet
  facet normal -4.013872e-001 -9.866851e-002 -9.105783e-001
    outer loop
      vertex -8.606820e-001 5.910622e+000 -3.029727e+000
      vertex -1.139538e+000 5.082698e+000 -2.817094e+000
      vertex -1.655846e+000 5.910622e+000 -2.679215e+000
    endloop
  endfacet
  facet normal -2.895761e-001 -5.735606e-001 -7.662728e-001
    outer loop
      vertex -5.116847e-001 4.335818e+000 -2.679215e+000
      vertex -7.184528e-001 3.699452e+000 -2.124752e+000
      vertex -1.394183e+000 4.317441e+000 -2.331962e+000
    endloop
  endfacet
  facet normal -3.232744e-001 -4.275981e-001 -8.441881e-001
    outer loop
      vertex -5.116847e-001 4.335818e+000 -2.679215e+000
      vertex -1.394183e+000 4.317441e+000 -2.331962e+000
      vertex -1.139538e+000 5.082698e+000 -2.817094e+000
    endloop
  endfacet
  facet normal -4.811266e-001 -3.495590e-001 -8.039438e-001
    outer loop
      vertex -1.139538e+000 5.082698e+000 -2.817094e+000
      vertex -1.394183e+000 4.317441e+000 -2.331962e+000
      vertex -1.946031e+000 5.076995e+000 -2.331962e+000
    endloop
  endfacet
  facet normal -5.065672e-001 -1.753169e-001 -8.441882e-001
    outer loop
      vertex -1.139538e+000 5.082698e+000 -2.817094e+000
      vertex -1.946031e+000 5.076995e+000 -2.331962e+000
      vertex -1.655846e+000 5.910622e+000 -2.679215e+000
    endloop
  endfacet
  facet normal -6.349723e-001 -9.816305e-002 -7.662729e-001
    outer loop
      vertex -1.655846e+000 5.910622e+000 -2.679215e+000
      vertex -1.946031e+000 5.076995e+000 -2.331962e+000
      vertex -2.324961e+000 5.910622e+000 -2.124752e+000
    endloop
  endfacet
  facet normal -3.482636e-001 -7.491174e-001 -5.635030e-001
    outer loop
      vertex -7.184528e-001 3.699452e+000 -2.124752e+000
      vertex -8.705300e-001 3.231407e+000 -1.408547e+000
      vertex -1.579135e+000 3.699452e+000 -1.592822e+000
    endloop
  endfacet
  facet normal -3.985872e-001 -6.520705e-001 -6.449282e-001
    outer loop
      vertex -7.184528e-001 3.699452e+000 -2.124752e+000
      vertex -1.579135e+000 3.699452e+000 -1.592822e+000
      vertex -1.394183e+000 4.317441e+000 -2.331962e+000
    endloop
  endfacet
  facet normal -5.491368e-001 -5.684178e-001 -6.126582e-001
    outer loop
      vertex -1.394183e+000 4.317441e+000 -2.331962e+000
      vertex -1.579135e+000 3.699452e+000 -1.592822e+000
      vertex -2.167531e+000 4.335818e+000 -1.655846e+000
    endloop
  endfacet
  facet normal -5.985364e-001 -4.348622e-001 -6.727920e-001
    outer loop
      vertex -1.394183e+000 4.317441e+000 -2.331962e+000
      vertex -2.167531e+000 4.335818e+000 -1.655846e+000
      vertex -1.946031e+000 5.076995e+000 -2.331962e+000
    endloop
  endfacet
  facet normal -7.102901e-001 -3.466094e-001 -6.126581e-001
    outer loop
      vertex -1.946031e+000 5.076995e+000 -2.331962e+000
      vertex -2.167531e+000 4.335818e+000 -1.655846e+000
      vertex -2.590927e+000 5.092064e+000 -1.592822e+000
    endloop
  endfacet
  facet normal -7.433262e-001 -1.775779e-001 -6.449281e-001
    outer loop
      vertex -1.946031e+000 5.076995e+000 -2.331962e+000
      vertex -2.590927e+000 5.092064e+000 -1.592822e+000
      vertex -2.324961e+000 5.910622e+000 -2.124752e+000
    endloop
  endfacet
  facet normal -8.200723e-001 -9.972836e-002 -5.635030e-001
    outer loop
      vertex -2.324961e+000 5.910622e+000 -2.124752e+000
      vertex -2.590927e+000 5.092064e+000 -1.592822e+000
      vertex -2.817093e+000 5.910621e+000 -1.408547e+000
    endloop
  endfacet
  facet normal 5.243041e-002 -1.613642e-001 -9.855012e-001
    outer loop
      vertex 0.000000e+000 5.910622e+000 -3.149606e+000
      vertex 6.963065e-001 5.404726e+000 -3.029727e+000
      vertex -2.659654e-001 5.092064e+000 -3.029727e+000
    endloop
  endfacet
  facet normal 2.667331e-001 -3.157541e-001 -9.105783e-001
    outer loop
      vertex 6.963065e-001 5.404726e+000 -3.029727e+000
      vertex 1.339608e+000 4.937340e+000 -2.679215e+000
      vertex 4.352650e-001 4.571014e+000 -2.817094e+000
    endloop
  endfacet
  facet normal 8.839916e-002 -2.720646e-001 -9.582101e-001
    outer loop
      vertex 6.963065e-001 5.404726e+000 -3.029727e+000
      vertex 4.352650e-001 4.571014e+000 -2.817094e+000
      vertex -2.659654e-001 5.092064e+000 -3.029727e+000
    endloop
  endfacet
  facet normal -3.019581e-002 -4.122322e-001 -9.105783e-001
    outer loop
      vertex -2.659654e-001 5.092064e+000 -3.029727e+000
      vertex 4.352650e-001 4.571014e+000 -2.817094e+000
      vertex -5.116847e-001 4.335818e+000 -2.679215e+000
    endloop
  endfacet
  facet normal 4.560049e-001 -4.526426e-001 -7.662729e-001
    outer loop
      vertex 1.339608e+000 4.937340e+000 -2.679215e+000
      vertex 1.880934e+000 4.544044e+000 -2.124752e+000
      vertex 1.084379e+000 4.092356e+000 -2.331962e+000
    endloop
  endfacet
  facet normal 3.067725e-001 -4.395867e-001 -8.441885e-001
    outer loop
      vertex 1.339608e+000 4.937340e+000 -2.679215e+000
      vertex 1.084379e+000 4.092356e+000 -2.331962e+000
      vertex 4.352650e-001 4.571014e+000 -2.817094e+000
    endloop
  endfacet
  facet normal 1.837740e-001 -5.655977e-001 -8.039442e-001
    outer loop
      vertex 4.352650e-001 4.571014e+000 -2.817094e+000
      vertex 1.084379e+000 4.092356e+000 -2.331962e+000
      vertex 1.914697e-001 3.802232e+000 -2.331962e+000
    endloop
  endfacet
  facet normal 1.019869e-002 -5.359495e-001 -8.441885e-001
    outer loop
      vertex 4.352650e-001 4.571014e+000 -2.817094e+000
      vertex 1.914697e-001 3.802232e+000 -2.331962e+000
      vertex -5.116847e-001 4.335818e+000 -2.679215e+000
    endloop
  endfacet
  facet normal -1.028589e-001 -6.342288e-001 -7.662727e-001
    outer loop
      vertex -5.116847e-001 4.335818e+000 -2.679215e+000
      vertex 1.914697e-001 3.802232e+000 -2.331962e+000
      vertex -7.184528e-001 3.699452e+000 -2.124752e+000
    endloop
  endfacet
  facet normal 6.048338e-001 -5.627082e-001 -5.635030e-001
    outer loop
      vertex 1.880934e+000 4.544044e+000 -2.124752e+000
      vertex 2.279077e+000 4.254776e+000 -1.408547e+000
      vertex 1.614969e+000 3.725487e+000 -1.592822e+000
    endloop
  endfacet
  facet normal 4.969862e-001 -5.805795e-001 -6.449280e-001
    outer loop
      vertex 1.880934e+000 4.544044e+000 -2.124752e+000
      vertex 1.614969e+000 3.725487e+000 -1.592822e+000
      vertex 1.084379e+000 4.092356e+000 -2.331962e+000
    endloop
  endfacet
  facet normal 3.709048e-001 -6.979111e-001 -6.126578e-001
    outer loop
      vertex 1.084379e+000 4.092356e+000 -2.331962e+000
      vertex 1.614969e+000 3.725487e+000 -1.592822e+000
      vertex 8.279233e-001 3.362537e+000 -1.655846e+000
    endloop
  endfacet
  facet normal 2.286208e-001 -7.036220e-001 -6.727917e-001
    outer loop
      vertex 1.084379e+000 4.092356e+000 -2.331962e+000
      vertex 8.279233e-001 3.362537e+000 -1.655846e+000
      vertex 1.914697e-001 3.802232e+000 -2.331962e+000
    endloop
  endfacet
  facet normal 1.101539e-001 -7.826343e-001 -6.126579e-001
    outer loop
      vertex 1.914697e-001 3.802232e+000 -2.331962e+000
      vertex 8.279233e-001 3.362537e+000 -1.655846e+000
      vertex -2.214634e-002 3.193556e+000 -1.592822e+000
    endloop
  endfacet
  facet normal -6.081402e-002 -7.618198e-001 -6.449281e-001
    outer loop
      vertex 1.914697e-001 3.802232e+000 -2.331962e+000
      vertex -2.214634e-002 3.193556e+000 -1.592822e+000
      vertex -7.184528e-001 3.699452e+000 -2.124752e+000
    endloop
  endfacet
  facet normal -1.585692e-001 -8.107529e-001 -5.635030e-001
    outer loop
      vertex -7.184528e-001 3.699452e+000 -2.124752e+000
      vertex -2.214634e-002 3.193556e+000 -1.592822e+000
      vertex -8.705300e-001 3.231407e+000 -1.408547e+000
    endloop
  endfacet
  facet normal 1.696683e-001 4.168843e-008 -9.855012e-001
    outer loop
      vertex 0.000000e+000 5.910622e+000 -3.149606e+000
      vertex 6.963063e-001 6.416518e+000 -3.029727e+000
      vertex 6.963065e-001 5.404726e+000 -3.029727e+000
    endloop
  endfacet
  facet normal 3.827252e-001 1.561047e-001 -9.105783e-001
    outer loop
      vertex 6.963063e-001 6.416518e+000 -3.029727e+000
      vertex 1.339607e+000 6.883904e+000 -2.679215e+000
      vertex 1.408547e+000 5.910622e+000 -2.817093e+000
    endloop
  endfacet
  facet normal 2.860661e-001 6.740859e-008 -9.582099e-001
    outer loop
      vertex 6.963063e-001 6.416518e+000 -3.029727e+000
      vertex 1.408547e+000 5.910622e+000 -2.817093e+000
      vertex 6.963065e-001 5.404726e+000 -3.029727e+000
    endloop
  endfacet
  facet normal 3.827254e-001 -1.561044e-001 -9.105783e-001
    outer loop
      vertex 6.963065e-001 5.404726e+000 -3.029727e+000
      vertex 1.408547e+000 5.910622e+000 -2.817093e+000
      vertex 1.339608e+000 4.937340e+000 -2.679215e+000
    endloop
  endfacet
  facet normal 5.714021e-001 2.938117e-001 -7.662730e-001
    outer loop
      vertex 1.339607e+000 6.883904e+000 -2.679215e+000
      vertex 1.880933e+000 7.277200e+000 -2.124752e+000
      vertex 2.064365e+000 6.380052e+000 -2.331962e+000
    endloop
  endfacet
  facet normal 5.128700e-001 1.559180e-001 -8.441884e-001
    outer loop
      vertex 1.339607e+000 6.883904e+000 -2.679215e+000
      vertex 2.064365e+000 6.380052e+000 -2.331962e+000
      vertex 1.408547e+000 5.910622e+000 -2.817093e+000
    endloop
  endfacet
  facet normal 5.947048e-001 0.000000e+000 -8.039442e-001
    outer loop
      vertex 1.408547e+000 5.910622e+000 -2.817093e+000
      vertex 2.064365e+000 6.380052e+000 -2.331962e+000
      vertex 2.064365e+000 5.441192e+000 -2.331962e+000
    endloop
  endfacet
  facet normal 5.128701e-001 -1.559177e-001 -8.441883e-001
    outer loop
      vertex 1.408547e+000 5.910622e+000 -2.817093e+000
      vertex 2.064365e+000 5.441192e+000 -2.331962e+000
      vertex 1.339608e+000 4.937340e+000 -2.679215e+000
    endloop
  endfacet
  facet normal 5.714023e-001 -2.938116e-001 -7.662729e-001
    outer loop
      vertex 1.339608e+000 4.937340e+000 -2.679215e+000
      vertex 2.064365e+000 5.441192e+000 -2.331962e+000
      vertex 1.880934e+000 4.544044e+000 -2.124752e+000
    endloop
  endfacet
  facet normal 7.220716e-001 4.013444e-001 -5.635027e-001
    outer loop
      vertex 1.880933e+000 7.277200e+000 -2.124752e+000
      vertex 2.279076e+000 7.566467e+000 -1.408547e+000
      vertex 2.577240e+000 6.771304e+000 -1.592821e+000
    endloop
  endfacet
  facet normal 7.057415e-001 2.932525e-001 -6.449279e-001
    outer loop
      vertex 1.880933e+000 7.277200e+000 -2.124752e+000
      vertex 2.577240e+000 6.771304e+000 -1.592821e+000
      vertex 2.064365e+000 6.380052e+000 -2.331962e+000
    endloop
  endfacet
  facet normal 7.783689e-001 1.370851e-001 -6.126577e-001
    outer loop
      vertex 2.064365e+000 6.380052e+000 -2.331962e+000
      vertex 2.577240e+000 6.771304e+000 -1.592821e+000
      vertex 2.679215e+000 5.910622e+000 -1.655846e+000
    endloop
  endfacet
  facet normal 7.398321e-001 0.000000e+000 -6.727915e-001
    outer loop
      vertex 2.064365e+000 6.380052e+000 -2.331962e+000
      vertex 2.679215e+000 5.910622e+000 -1.655846e+000
      vertex 2.064365e+000 5.441192e+000 -2.331962e+000
    endloop
  endfacet
  facet normal 7.783689e-001 -1.370848e-001 -6.126578e-001
    outer loop
      vertex 2.064365e+000 5.441192e+000 -2.331962e+000
      vertex 2.679215e+000 5.910622e+000 -1.655846e+000
      vertex 2.577240e+000 5.049941e+000 -1.592821e+000
    endloop
  endfacet
  facet normal 7.057416e-001 -2.932522e-001 -6.449278e-001
    outer loop
      vertex 2.064365e+000 5.441192e+000 -2.331962e+000
      vertex 2.577240e+000 5.049941e+000 -1.592821e+000
      vertex 1.880934e+000 4.544044e+000 -2.124752e+000
    endloop
  endfacet
  facet normal 7.220717e-001 -4.013439e-001 -5.635029e-001
    outer loop
      vertex 1.880934e+000 4.544044e+000 -2.124752e+000
      vertex 2.577240e+000 5.049941e+000 -1.592821e+000
      vertex 2.279077e+000 4.254776e+000 -1.408547e+000
    endloop
  endfacet
endsolid Object01
