solid Object01
  facet normal 0.000000e+000 -0.000000e+000 -1.000000e+000
    outer loop
      vertex -3.000000e+000 3.131826e+000 0.000000e+000
      vertex -3.000000e+000 9.131826e+000 0.000000e+000
      vertex 3.000000e+000 9.131826e+000 0.000000e+000
    endloop
  endfacet
  facet normal 0.000000e+000 0.000000e+000 -1.000000e+000
    outer loop
      vertex 3.000000e+000 9.131826e+000 0.000000e+000
      vertex 3.000000e+000 3.131826e+000 0.000000e+000
      vertex -3.000000e+000 3.131826e+000 0.000000e+000
    endloop
  endfacet
  facet normal 0.000000e+000 0.000000e+000 1.000000e+000
    outer loop
      vertex -3.000000e+000 3.131826e+000 6.000000e+000
      vertex 3.000000e+000 3.131826e+000 6.000000e+000
      vertex 3.000000e+000 9.131826e+000 6.000000e+000
    endloop
  endfacet
  facet normal 0.000000e+000 0.000000e+000 1.000000e+000
    outer loop
      vertex 3.000000e+000 9.131826e+000 6.000000e+000
      vertex -3.000000e+000 9.131826e+000 6.000000e+000
      vertex -3.000000e+000 3.131826e+000 6.000000e+000
    endloop
  endfacet
  facet normal -0.000000e+000 -1.000000e+000 0.000000e+000
    outer loop
      vertex -3.000000e+000 3.131826e+000 0.000000e+000
      vertex 3.000000e+000 3.131826e+000 0.000000e+000
      vertex 3.000000e+000 3.131826e+000 6.000000e+000
    endloop
  endfacet
  facet normal 0.000000e+000 -1.000000e+000 0.000000e+000
    outer loop
      vertex 3.000000e+000 3.131826e+000 6.000000e+000
      vertex -3.000000e+000 3.131826e+000 6.000000e+000
      vertex -3.000000e+000 3.131826e+000 0.000000e+000
    endloop
  endfacet
  facet normal 1.000000e+000 0.000000e+000 0.000000e+000
    outer loop
      vertex 3.000000e+000 3.131826e+000 0.000000e+000
      vertex 3.000000e+000 9.131826e+000 0.000000e+000
      vertex 3.000000e+000 9.131826e+000 6.000000e+000
    endloop
  endfacet
  facet normal 1.000000e+000 0.000000e+000 0.000000e+000
    outer loop
      vertex 3.000000e+000 9.131826e+000 6.000000e+000
      vertex 3.000000e+000 3.131826e+000 6.000000e+000
      vertex 3.000000e+000 3.131826e+000 0.000000e+000
    endloop
  endfacet
  facet normal -0.000000e+000 1.000000e+000 0.000000e+000
    outer loop
      vertex 3.000000e+000 9.131826e+000 0.000000e+000
      vertex -3.000000e+000 9.131826e+000 0.000000e+000
      vertex -3.000000e+000 9.131826e+000 6.000000e+000
    endloop
  endfacet
  facet normal 0.000000e+000 1.000000e+000 0.000000e+000
    outer loop
      vertex -3.000000e+000 9.131826e+000 6.000000e+000
      vertex 3.000000e+000 9.131826e+000 6.000000e+000
      vertex 3.000000e+000 9.131826e+000 0.000000e+000
    endloop
  endfacet
  facet normal -1.000000e+000 0.000000e+000 0.000000e+000
    outer loop
      vertex -3.000000e+000 9.131826e+000 0.000000e+000
      vertex -3.000000e+000 3.131826e+000 0.000000e+000
      vertex -3.000000e+000 3.131826e+000 6.000000e+000
    endloop
  endfacet
  facet normal -1.000000e+000 0.000000e+000 0.000000e+000
    outer loop
      vertex -3.000000e+000 3.131826e+000 6.000000e+000
      vertex -3.000000e+000 9.131826e+000 6.000000e+000
      vertex -3.000000e+000 9.131826e+000 0.000000e+000
    endloop
  endfacet
endsolid Object01
